<?xml version="1.0" encoding="UTF-8"?>
<svg width="403px" height="81px" viewBox="0 0 403 81" version="1.1" xmlns="http://www.w3.org/2000/svg" xmlns:xlink="http://www.w3.org/1999/xlink">
    <!-- Generator: Sketch 59 (86127) - https://sketch.com -->
    <title>Group 3</title>
    <desc>Created with Sketch.</desc>
    <defs>
        <polygon id="path-1" points="0 0 88 0 88 81 0 81"></polygon>
    </defs>
    <g id="Symbols" stroke="none" stroke-width="1" fill="none" fill-rule="evenodd">
        <g id="Header-v3-Copy-2" transform="translate(-38.000000, -12.000000)">
            <g id="Group-3" transform="translate(38.000000, 12.000000)">
                <g id="Group-2">
                    <g id="Group" transform="translate(79.500000, 40.500000) scale(-1, 1) translate(-79.500000, -40.500000) translate(35.500000, 0.000000)">
                        <mask id="mask-2" fill="white">
                            <use xlink:href="#path-1"></use>
                        </mask>
                        <g id="Clip-24"></g>
                        <path d="M82.7689327,39.2566867 C81.5162547,39.2566867 80.4959283,38.2389721 80.4959283,36.9880969 C80.4959283,35.7378518 81.5162547,34.7207674 82.7689327,34.7207674 C84.0216108,34.7207674 85.0419372,35.7378518 85.0419372,36.9880969 C85.0419372,38.2389721 84.0216108,39.2566867 82.7689327,39.2566867 L82.7689327,39.2566867 Z M38.1921578,30.8257247 L42.1857004,30.8257247 L42.1857004,26.9130374 L38.1921578,26.9130374 L38.1921578,30.8257247 Z M47.7337256,37.9219997 L56.0914368,37.9219997 L56.0914368,31.4199692 L47.7337256,31.4199692 L47.7337256,37.9219997 Z M5.23106726,39.6631424 C3.97838924,39.6631424 2.95869417,38.6447976 2.95869417,37.3945526 C2.95869417,36.1443075 3.97838924,35.1265929 5.23106726,35.1265929 C6.48437668,35.1265929 7.50407175,36.1443075 7.50407175,37.3945526 C7.50407175,38.6447976 6.48437668,39.6631424 5.23106726,39.6631424 L5.23106726,39.6631424 Z M10.1868484,26.6565607 C8.9341704,26.6565607 7.91384395,25.6388461 7.91384395,24.3879709 C7.91384395,23.1377258 8.9341704,22.1206414 10.1868484,22.1206414 C11.4395265,22.1206414 12.4592215,23.1377258 12.4592215,24.3879709 C12.4592215,25.6388461 11.4395265,26.6565607 10.1868484,26.6565607 L10.1868484,26.6565607 Z M19.0420951,16.0364095 C17.789417,16.0364095 16.7703534,15.0186949 16.7703534,13.7684498 C16.7703534,12.5175746 17.789417,11.5004901 19.0420951,11.5004901 C20.2954045,11.5004901 21.3150996,12.5175746 21.3150996,13.7684498 C21.3150996,15.0186949 20.2954045,16.0364095 19.0420951,16.0364095 L19.0420951,16.0364095 Z M28.3506798,7.03956029 C28.3506798,5.78931522 29.3703749,4.77097045 30.6230529,4.77097045 C31.8763623,4.77097045 32.8960574,5.78931522 32.8960574,7.03956029 C32.8960574,8.28980535 31.8763623,9.30751996 30.6230529,9.30751996 C29.3703749,9.30751996 28.3506798,8.28980535 28.3506798,7.03956029 L28.3506798,7.03956029 Z M43.3588233,2.95294777 C44.6115013,2.95294777 45.6318278,3.97066237 45.6318278,5.22090744 C45.6318278,6.47178266 44.6115013,7.48949727 43.3588233,7.48949727 C42.1061453,7.48949727 41.0864502,6.47178266 41.0864502,5.22090744 C41.0864502,3.97066237 42.1061453,2.95294777 43.3588233,2.95294777 L43.3588233,2.95294777 Z M67.676183,10.7991178 C68.928861,10.7991178 69.9479247,11.8162022 69.9479247,13.0664473 C69.9479247,14.3173225 68.928861,15.3350371 67.676183,15.3350371 C66.4228735,15.3350371 65.4031785,14.3173225 65.4031785,13.0664473 C65.4031785,11.8162022 66.4228735,10.7991178 67.676183,10.7991178 L67.676183,10.7991178 Z M56.4222852,4.01099286 C57.6755946,4.01099286 58.6952897,5.02933763 58.6952897,6.27958269 C58.6952897,7.52982776 57.6755946,8.54817252 56.4222852,8.54817252 C55.1696072,8.54817252 54.1505435,7.52982776 54.1505435,6.27958269 C54.1505435,5.02933763 55.1696072,4.01099286 56.4222852,4.01099286 L56.4222852,4.01099286 Z M78.1073794,21.4186388 C79.3606888,21.4186388 80.3803839,22.4363535 80.3803839,23.6865985 C80.3803839,24.9368436 79.3606888,25.9551883 78.1073794,25.9551883 C76.8547013,25.9551883 75.8350063,24.9368436 75.8350063,23.6865985 C75.8350063,22.4363535 76.8547013,21.4186388 78.1073794,21.4186388 L78.1073794,21.4186388 Z M82.7689327,31.7678196 C80.3980628,31.7678196 78.3940305,33.3507912 77.7544323,35.5122532 L66.242296,35.5122532 L61.104043,40.7174065 L59.0501309,40.7174065 L59.0501309,31.419339 L63.2615031,31.419339 L67.6300915,26.9287915 L74.1441435,27.084442 C75.1038565,28.1979415 76.5225901,28.907506 78.1073794,28.907506 C80.9922009,28.907506 83.3384466,26.5651869 83.3384466,23.6865985 C83.3384466,20.8080101 80.9922009,18.4663212 78.1073794,18.4663212 C75.2231892,18.4663212 72.8763121,20.8080101 72.8763121,23.6865985 C72.8763121,23.8264949 72.8864143,23.9632404 72.897148,24.1006162 L66.4083516,23.9449657 L62.0100879,28.4670214 L59.0501309,28.4670214 L59.0501309,24.765439 L65.5515552,17.8336367 C66.201887,18.1235121 66.9191462,18.2879849 67.676183,18.2879849 C70.5603731,18.2879849 72.9066188,15.9456659 72.9066188,13.0664473 C72.9066188,10.1878588 70.5603731,7.84617 67.676183,7.84617 C64.7913614,7.84617 62.4451157,10.1878588 62.4451157,13.0664473 C62.4451157,14.1175606 62.7601794,15.0955748 63.2981238,15.9160482 L60.0193148,19.4109368 L54.822974,15.8164823 L56.0257722,11.4803249 C56.1571013,11.4897773 56.2884305,11.5004901 56.4222852,11.5004901 C59.3071067,11.5004901 61.6539839,9.15817112 61.6539839,6.27958269 C61.6539839,3.40099426 59.3071067,1.05867526 56.4222852,1.05867526 C53.5380951,1.05867526 51.1918493,3.40099426 51.1918493,6.27958269 C51.1918493,7.96716146 52.0019229,9.46569108 53.2495498,10.4203893 L51.4109417,17.0484526 L57.9748735,21.5900434 L56.0914368,23.5983756 L56.0914368,28.4670214 L47.7337256,28.4670214 L47.7337256,18.8639546 L44.6916879,14.3557625 L44.6916879,10.2634785 C46.9312287,9.67301498 48.5898906,7.63947626 48.5898906,5.22090744 C48.5898906,2.342319 46.2430135,0 43.3588233,0 C40.4746332,0 38.1283874,2.342319 38.1283874,5.22090744 C38.1283874,7.53297857 39.6430924,9.49593894 41.7336251,10.1802969 L41.7336251,15.2581571 L44.7750314,19.7657191 L44.7750314,23.9607198 L38.1921578,23.9607198 L38.1921578,17.9502171 L34.0837022,10.9440555 C35.1659049,9.98683658 35.8541202,8.59354432 35.8541202,7.03956029 C35.8541202,4.16097185 33.507243,1.81865285 30.6230529,1.81865285 C27.7388628,1.81865285 25.3919857,4.16097185 25.3919857,7.03956029 C25.3919857,9.91814872 27.7388628,12.2598376 30.6230529,12.2598376 C30.8844484,12.2598376 31.13953,12.2340008 31.3908233,12.1974513 L35.2340951,18.7505251 L35.2340951,23.9607198 L30.2808395,23.9607198 L30.2808395,18.3831396 L24.0079785,15.399944 C24.1778224,14.8857303 24.2731623,14.3381179 24.2731623,13.7684498 C24.2731623,10.8892312 21.9269166,8.54817252 19.0420951,8.54817252 C16.1579049,8.54817252 13.8116592,10.8892312 13.8116592,13.7684498 C13.8116592,16.6470382 16.1579049,18.9893572 19.0420951,18.9893572 C20.2695175,18.9893572 21.3965489,18.5621061 22.2899659,17.853802 L27.3227767,20.2465341 L27.3227767,23.9607198 L22.1624251,23.9607198 L18.7061955,27.5639966 L15.1849327,25.926831 C15.3352036,25.4397143 15.4172843,24.9236101 15.4172843,24.3879709 C15.4172843,21.5093824 13.0710386,19.1676936 10.1868484,19.1676936 C7.3026583,19.1676936 4.95578117,21.5093824 4.95578117,24.3879709 C4.95578117,27.2671895 7.3026583,29.6088783 10.1868484,29.6088783 C11.4521543,29.6088783 12.6139121,29.1583112 13.5193256,28.4084162 L19.378626,31.134505 L23.4264682,26.9130374 L35.2340951,26.9130374 L35.2340951,33.7786725 L39.8009399,33.7786725 L39.8009399,41.1604117 L30.2808395,41.1604117 L30.2808395,33.2619381 L16.9534565,33.2619381 L10.0934027,35.4826355 C9.32752646,33.5480325 7.43840717,32.1742753 5.23106726,32.1742753 C2.34687713,32.1742753 0,34.5159642 0,37.3945526 C0,40.273141 2.34687713,42.61546 5.23106726,42.61546 C7.73263498,42.61546 9.82758744,40.8522616 10.3396448,38.5074219 L17.4206852,36.2148859 L27.3227767,36.2148859 L27.3227767,44.1133595 L39.8009399,44.1133595 L39.8009399,66.1136395 C35.8591713,64.3132614 32.2217327,65.0940344 32.2217327,65.0940344 L26.7589453,73.3214536 L26.6983318,73.3592634 C38.2736072,72.9887271 43.6517883,81 43.6517883,81 L43.6498942,80.934463 L43.6789381,81 C43.6789381,81 49.0564879,72.9887271 60.6317632,73.3592634 L60.5711498,73.3214536 L55.1083623,65.0940344 C55.1083623,65.0940344 51.5953076,64.3447696 47.7337256,66.0260468 L47.7337256,43.6703543 L62.3415677,43.6703543 L67.480452,38.4645708 L77.7544323,38.4645708 C78.3940305,40.6260328 80.3980628,42.2096345 82.7689327,42.2096345 C85.6531229,42.2096345 88,39.8673155 88,36.9880969 C88,34.1095085 85.6531229,31.7678196 82.7689327,31.7678196 L82.7689327,31.7678196 Z" id="Fill-23" fill-opacity="0.16" fill="#000000" mask="url(#mask-2)"></path>
                    </g>
                    <path d="M0.39,50.14 C0.39,56.44 5.13,61.36 11.61,61.36 C18.09,61.36 22.83,56.44 22.83,50.14 C22.83,43.99 18.09,39.19 11.61,39.19 C5.13,39.19 0.39,43.99 0.39,50.14 Z M5.82,50.14 C5.82,46.63 8.4,43.99 11.61,43.99 C14.82,43.99 17.4,46.63 17.4,50.14 C17.4,53.8 14.82,56.56 11.61,56.56 C8.4,56.56 5.82,53.8 5.82,50.14 Z M25.8,67 L30.99,67 L30.99,61.21 C30.99,60.43 30.93,59.89 30.93,59.89 L30.99,59.89 L31.0754519,59.9714286 C31.4155102,60.28 32.76,61.36 34.92,61.36 C39.03,61.36 42.12,58.18 42.12,53.29 C42.12,48.49 39.36,45.19 35.16,45.19 C31.89,45.19 30.48,47.32 30.48,47.32 L30.42,47.32 L30.45,47.01625 C30.465,46.8325 30.48,46.585 30.48,46.33 L30.48,45.55 L25.8,45.55 L25.8,67 Z M30.84,53.38 C30.84,50.71 32.31,49.57 33.87,49.57 C35.67,49.57 36.9,51.07 36.9,53.38 C36.9,55.75 35.49,57.07 33.87,57.07 C31.83,57.07 30.84,55.24 30.84,53.38 Z M43.8,53.26 C43.8,57.37 46.77,61.36 52.29,61.36 C56.4,61.36 58.89,59.11 58.89,59.11 L56.97,55.48 L56.7976067,55.6031293 C56.261201,55.9715577 54.5472414,57.04 52.71,57.04 C51.06,57.04 49.5,56.17 49.11,54.28 L58.86,54.28 L58.9140089,53.7285867 C58.9458667,53.3746667 58.98,52.932 58.98,52.66 C58.98,48.37 56.4,45.19 51.84,45.19 C46.86,45.19 43.8,48.73 43.8,53.26 Z M49.23,51.31 C49.5,50.17 50.22,49.09 51.72,49.09 C52.95,49.09 53.76,50.14 53.76,51.31 L49.23,51.31 Z M61.8,61 L66.99,61 L66.99,54.16 C66.99,53.41 67.08,52.72 67.29,52.12 C67.74,50.8 68.73,49.9 70.35,49.9 C71.49,49.9 72.06,50.5 72.06,51.94 L72.06,61 L77.25,61 L77.25,50.98 C77.25,46.63 74.82,45.19 71.7,45.19 C68.97,45.19 67.5,46.66 66.78,47.86 L66.72,47.86 L66.7380316,47.7002404 C66.7557025,47.5247934 66.78,47.2245455 66.78,46.9 L66.78,45.55 L61.8,45.55 L61.8,61 Z M80.01,50.14 C80.01,56.44 84.75,61.36 91.23,61.36 C97.71,61.36 102.45,56.44 102.45,50.14 C102.45,43.99 97.71,39.19 91.23,39.19 C84.75,39.19 80.01,43.99 80.01,50.14 Z M85.44,50.14 C85.44,46.63 88.02,43.99 91.23,43.99 C94.44,43.99 97.02,46.63 97.02,50.14 C97.02,53.8 94.44,56.56 91.23,56.56 C88.02,56.56 85.44,53.8 85.44,50.14 Z M105.72,53.11 C105.72,57.94 109.26,61.36 114.72,61.36 C120.12,61.36 123.66,57.94 123.66,53.11 L123.66,39.55 L118.41,39.55 L118.41,53.11 C118.41,55.36 116.94,56.56 114.69,56.56 C112.44,56.56 110.97,55.36 110.97,53.11 L110.97,39.55 L105.72,39.55 L105.72,53.11 Z M129.57,54.31 L126.81,58.3 L126.964271,58.4551841 C127.612748,59.0776446 130.287273,61.36 134.64,61.36 C139.47,61.36 142.2,58.27 142.2,54.7 C142.2,47.92 132.54,48.4 132.54,45.7 C132.54,44.5 133.74,44.02 134.82,44.02 C137.4,44.02 139.56,45.91 139.56,45.91 L141.78,41.62 L141.667448,41.5104188 C141.156923,41.0368639 138.907692,39.19 134.88,39.19 C130.62,39.19 127.29,41.8 127.29,45.76 C127.29,52.36 136.95,52.27 136.95,54.82 C136.95,56.11 135.78,56.53 134.7,56.53 C132,56.53 129.57,54.31 129.57,54.31 Z M145.8,61 L153.42,61 C160.17,61 164.49,56.98 164.49,50.23 C164.49,43.48 160.17,39.55 153.42,39.55 L145.8,39.55 L145.8,61 Z M151.05,56.5 L151.05,44.05 L153.21,44.05 C156.75,44.05 159.06,46.15 159.06,50.23 C159.06,54.34 156.84,56.5 153.21,56.5 L151.05,56.5 Z" id="OpenOUSD" fill="#0042E6" fill-rule="nonzero"></path>
                </g>
                <path d="M186.44,46.018 C187.172004,46.018 187.819997,46.1919983 188.384,46.54 C188.948003,46.8880017 189.385998,47.3829968 189.698,48.025 C190.010002,48.6670032 190.166,49.4139957 190.166,50.266 C190.166,51.2260048 189.995002,52.0749963 189.653,52.813 C189.310998,53.5510037 188.828003,54.120998 188.204,54.523 C187.579997,54.925002 186.860004,55.126 186.044,55.126 C185.359997,55.126 184.760003,54.9760015 184.244,54.676 C183.727997,54.3759985 183.344001,53.9560027 183.092,53.416 L182.966,55 L181.508,55 L182.516,42.31 L183.974,42.31 L183.56,47.53 C183.860002,47.0619977 184.264997,46.6930014 184.775,46.423 C185.285003,46.1529987 185.839997,46.018 186.44,46.018 Z M185.918,53.92 C186.770004,53.92 187.441998,53.5960032 187.934,52.948 C188.426002,52.2999968 188.672,51.4060057 188.672,50.266 C188.672,49.3059952 188.444002,48.5590027 187.988,48.025 C187.531998,47.4909973 186.890004,47.224 186.062,47.224 C185.197996,47.224 184.520002,47.5509967 184.028,48.205 C183.535998,48.8590033 183.29,49.7559943 183.29,50.896 C183.29,51.8800049 183.514998,52.6299974 183.965,53.146 C184.415002,53.6620026 185.065996,53.92 185.918,53.92 Z M198.806,46.252 L200.3,46.252 L194.18,58.24 L192.686,58.24 L194.414,54.874 L191.39,46.252 L192.884,46.252 L195.278,53.398 L198.806,46.252 Z" id="by" fill="#4A4A4A" fill-rule="nonzero"></path>
                <g id="OpenOakland-logo-color" transform="translate(207.000000, 22.000000)">
                    <g id="BG">
                        <rect id="Rectangle" x="0" y="0" width="211" height="53.9047059"></rect>
                    </g>
                    <g id="Logo" transform="translate(7.000000, 7.000000)" fill-rule="nonzero">
                        <path d="M23.7074497,4.99581522 C23.4718222,5.56622273 23.6022057,6.2227751 24.037778,6.65919953 C24.4733503,7.09562395 25.1282899,7.22593111 25.6970764,6.98933449 C26.265863,6.75273786 26.6364276,6.19585441 26.6359074,5.57846273 C26.6353862,4.96107105 26.2638828,4.40481669 25.694698,4.16918478 C24.9182579,3.84901387 24.0297656,4.21859768 23.7074497,4.99581522 Z" id="Path" fill="#21B790"></path>
                        <ellipse id="Oval" fill="#21B790" cx="29.9609396" cy="8.82798913" rx="1.52214765" ry="1.52608696"></ellipse>
                        <path d="M33.7811074,15.0955435 C34.5575479,14.7724566 34.92574,13.8794848 34.6034876,13.1010346 C34.2812352,12.3225845 33.3905687,11.953439 32.6141277,12.2765248 C31.8376868,12.5996107 31.4694936,13.492582 31.791745,14.2710326 C31.9460426,14.6452338 32.2425323,14.9424867 32.6157696,15.0971786 C32.9890069,15.2518705 33.4083034,15.2512822 33.7811074,15.0955435 Z" id="Path" fill="#21B790"></path>
                        <ellipse id="Oval" fill="#21B790" cx="34.3371141" cy="19.4194565" rx="1.52214765" ry="1.52608696"></ellipse>
                        <path d="M32.6162416,26.5602717 C33.1851767,26.796509 33.8400343,26.665788 34.2753322,26.2290885 C34.7106301,25.792389 34.8406009,25.1357544 34.604615,24.5654958 C34.3686291,23.9952373 33.8131831,23.6237137 33.1973851,23.6242352 C32.5815871,23.6247578 32.0267686,23.9972226 31.791745,24.5678804 C31.6371932,24.9416715 31.6372562,25.3617407 31.7919201,25.7354851 C31.946584,26.1092295 32.2431502,26.405963 32.6162416,26.5602717 Z" id="Path" fill="#21B790"></path>
                        <ellipse id="Oval" fill="#21B790" cx="29.9609396" cy="30.0130435" rx="1.52214765" ry="1.52608696"></ellipse>
                        <path d="M26.5191946,32.6752174 C26.284171,32.1045596 25.7293525,31.7320947 25.1135545,31.7315721 C24.4977565,31.7310506 23.9423105,32.1025742 23.7063246,32.6728328 C23.4703387,33.2430913 23.6003095,33.8997259 24.0356074,34.3364255 C24.4709053,34.773125 25.1257629,34.9038459 25.694698,34.6676087 C26.470799,34.3453506 26.8397973,33.4536684 26.5191946,32.6752174 L26.5191946,32.6752174 Z" id="Path" fill="#21B790"></path>
                        <path d="M19.394698,32.872337 C18.5540391,32.872337 17.8725503,33.5555894 17.8725503,34.3984239 C17.8725503,35.2412585 18.5540391,35.9245109 19.394698,35.9245109 C20.2353569,35.9245109 20.9168456,35.2412585 20.9168456,34.3984239 C20.9168456,33.9936805 20.756477,33.6055143 20.4710189,33.3193175 C20.1855609,33.0331207 19.7983966,32.872337 19.394698,32.872337 Z" id="Path" fill="#21B790"></path>
                        <path d="M15.0840604,33.8430978 C15.4063118,33.0646473 15.0381186,32.1716759 14.2616776,31.8485901 C13.4852367,31.5255042 12.5945702,31.8946497 12.2723178,32.6730999 C11.9500654,33.45155 12.3182575,34.3445218 13.094698,34.6676087 C13.4675585,34.8227607 13.8866225,34.8230564 14.2597004,34.6684306 C14.6327784,34.5138047 14.9293096,34.2169236 15.0840604,33.8430978 L15.0840604,33.8430978 Z" id="Path" fill="#21B790"></path>
                        <path d="M9.90875839,31.0897826 C10.3442345,30.6533799 10.4745911,29.9969278 10.2390325,29.4265821 C10.0034739,28.8562365 9.44839941,28.4843415 8.83268456,28.4843415 C8.21696971,28.4843415 7.66189524,28.8562365 7.42633666,29.4265821 C7.19077807,29.9969278 7.32113466,30.6533799 7.75661074,31.0897826 C8.3509898,31.6854264 9.31437933,31.6854264 9.90875839,31.0897826 L9.90875839,31.0897826 Z" id="Path" fill="#21B790"></path>
                        <path d="M4.18590604,25.7357609 C4.50815892,26.5142108 5.3988257,26.8833558 6.17526643,26.5602694 C6.95170715,26.237183 7.3198998,25.3442114 6.99764792,24.5657611 C6.67539603,23.7873107 5.78472973,23.4181646 5.00828859,23.74125 C4.63505338,23.8959469 4.33856769,24.193204 4.18427512,24.5674072 C4.02998254,24.9416104 4.03056936,25.3619921 4.18590604,25.7357609 Z" id="Path" fill="#21B790"></path>
                        <path d="M2.93224832,19.4194565 C2.93224832,20.2622911 3.61373704,20.9455435 4.45439597,20.9455435 C5.29505491,20.9455435 5.97654362,20.2622911 5.97654362,19.4194565 C5.97654362,18.576622 5.29505491,17.8933696 4.45439597,17.8933696 C3.61373704,17.8933696 2.93224832,18.576622 2.93224832,19.4194565 L2.93224832,19.4194565 Z" id="Path" fill="#21B790"></path>
                        <ellipse id="Oval" fill="#21B790" transform="translate(5.591652, 13.688654) rotate(-75.670000) translate(-5.591652, -13.688654) " cx="5.59165219" cy="13.6886539" rx="1.52584594" ry="1.52238927"></ellipse>
                        <path d="M7.75449664,9.90684783 C8.3491685,10.5021617 9.31252242,10.501677 9.90659799,9.90576497 C10.5006736,9.30985294 10.5006736,8.34400575 9.90659799,7.74809373 C9.31252242,7.15218171 8.3491685,7.15169698 7.75449664,7.74701087 C7.46854278,8.03327346 7.30785936,8.42178781 7.30785936,8.82692935 C7.30785936,9.23207088 7.46854278,9.62058524 7.75449664,9.90684783 L7.75449664,9.90684783 Z" id="Path" fill="#21B790"></path>
                        <path d="M12.2723154,6.16369565 C12.5945683,6.94214559 13.4852351,7.31129055 14.2616758,6.98820418 C15.0381165,6.66511781 15.4063092,5.77214623 15.0840573,4.99369587 C14.7618054,4.21524552 13.8711391,3.84609941 13.094698,4.16918478 C12.7218372,4.32433611 12.4257224,4.62163474 12.2714957,4.99567819 C12.117269,5.36972165 12.1175639,5.78987017 12.2723154,6.16369565 Z" id="Path" fill="#21B790"></path>
                        <path d="M19.394698,5.96445652 C20.2353569,5.96445652 20.9168456,5.28120412 20.9168456,4.43836957 C20.9168456,3.59553501 20.2353569,2.91228261 19.394698,2.91228261 C18.5540391,2.91228261 17.8725503,3.59553501 17.8725503,4.43836957 C17.8725503,5.28120412 18.5540391,5.96445652 19.394698,5.96445652 L19.394698,5.96445652 Z" id="Path" fill="#21B790"></path>
                        <path d="M25.9970134,3.44005435 C26.449947,3.62838678 26.9694051,3.41297097 27.157307,2.95888832 C27.3452089,2.50480567 27.130413,1.98397678 26.6775256,1.7955328 C26.2246381,1.60708882 25.7051273,1.82237669 25.5171141,2.27641304 C25.4267974,2.49452042 25.4266215,2.73966988 25.5166252,2.95790729 C25.6066289,3.17614469 25.7794358,3.3495843 25.9970134,3.44005435 Z" id="Path" fill="#21B790"></path>
                        <ellipse id="Oval" fill="#21B790" cx="32.220906" cy="6.56005435" rx="1" ry="1"></ellipse>
                        <path d="M35.3328523,12.8000543 C35.5229645,13.2518723 36.0417238,13.4644638 36.4930708,13.2755206 C36.9444179,13.0865775 37.1583648,12.5672602 36.9715687,12.114054 C36.7847726,11.6608478 36.2675852,11.4444409 35.8148658,11.6300543 C35.5953265,11.7200647 35.4208325,11.894397 35.330284,12.1141869 C35.2397356,12.3339768 35.2406604,12.5809522 35.3328523,12.8000543 Z" id="Path" fill="#21B790"></path>
                        <path d="M37.5336242,18.5292391 C37.0432398,18.5292391 36.6457047,18.927803 36.6457047,19.4194565 C36.6457047,19.91111 37.0432398,20.3096739 37.5336242,20.3096739 C38.0240085,20.3096739 38.4215436,19.91111 38.4215436,19.4194565 C38.4215436,18.927803 38.0240085,18.5292391 37.5336242,18.5292391 Z" id="Path" fill="#21B790"></path>
                        <ellipse id="Oval" fill="#21B790" transform="translate(36.152514, 26.375435) rotate(-38.510000) translate(-36.152514, -26.375435) " cx="36.1525135" cy="26.3754345" rx="1" ry="1"></ellipse>
                        <ellipse id="Oval" fill="#21B790" cx="32.220906" cy="32.2788587" rx="1" ry="1"></ellipse>
                        <path d="M25.9970134,35.3988587 C25.5441491,35.5873584 25.3294169,36.1082138 25.5173745,36.5622733 C25.705332,37.0163328 26.2248165,37.2316846 26.677727,37.0432964 C27.1306375,36.8549082 27.3454973,36.3341058 27.157651,35.88 C27.0678689,35.6614833 26.8949186,35.4878563 26.6770847,35.3975534 C26.4592508,35.3072505 26.2145009,35.3077203 25.9970134,35.3988587 L25.9970134,35.3988587 Z" id="Path" fill="#21B790"></path>
                        <path d="M19.394698,36.7151087 C18.9043136,36.7151087 18.5067785,37.1136726 18.5067785,37.6053261 C18.5067785,38.0969796 18.9043136,38.4955435 19.394698,38.4955435 C19.8850824,38.4955435 20.2826174,38.0969796 20.2826174,37.6053261 C20.2826174,37.1136726 19.8850824,36.7151087 19.394698,36.7151087 L19.394698,36.7151087 Z" id="Path" fill="#21B790"></path>
                        <path d="M12.7944966,35.3988587 C12.4626857,35.2605346 12.08043,35.3363642 11.8261604,35.5909513 C11.5718909,35.8455384 11.4957464,36.2286818 11.6332699,36.561536 C11.7707933,36.8943902 12.094867,37.1113207 12.4542183,37.1110679 C12.8135696,37.1108147 13.1373389,36.893428 13.274396,36.5603804 C13.4610667,36.1067718 13.246421,35.5872552 12.7944966,35.3988587 L12.7944966,35.3988587 Z" id="Path" fill="#21B790"></path>
                        <ellipse id="Oval" fill="#21B790" cx="6.56848993" cy="32.2788587" rx="1" ry="1"></ellipse>
                        <path d="M3.45654362,26.0430978 C3.26853045,25.5890615 2.7490196,25.3737736 2.29613216,25.5622176 C1.84324473,25.7506616 1.62844878,26.2714905 1.8163507,26.7255731 C2.00425261,27.1796558 2.5237107,27.3950716 2.9766443,27.2067391 C3.19459697,27.1167247 3.36777579,26.9433268 3.45784556,26.7249291 C3.54791533,26.5065314 3.54744678,26.2611482 3.45654362,26.0430978 Z" id="Path" fill="#21B790"></path>
                        <ellipse id="Oval" fill="#21B790" cx="1.25577181" cy="19.4194565" rx="1" ry="1"></ellipse>
                        <path d="M2.29802013,13.2811957 C2.6300377,13.4187471 3.01201172,13.3421612 3.26573006,13.0871695 C3.5194484,12.8321778 3.59491138,12.4490309 3.45691133,12.1164882 C3.31891127,11.7839454 2.99464352,11.5675402 2.63539702,11.568236 C2.27615053,11.5689352 1.95272116,11.7865978 1.81600671,12.1196739 C1.72588889,12.3377471 1.72607062,12.5828179 1.81651175,12.8007565 C1.90695288,13.0186951 2.08021179,13.1915693 2.29802013,13.2811957 L2.29802013,13.2811957 Z" id="Path" fill="#21B790"></path>
                        <path d="M7.19637584,7.18956522 C7.54310393,6.84190433 7.54308481,6.27826636 7.19633313,5.93062912 C6.84958145,5.58299188 6.28739841,5.58299188 5.94064674,5.93062912 C5.59389506,6.27826636 5.59387594,6.84190433 5.94060403,7.18956522 C6.10712383,7.35653301 6.33298335,7.45033597 6.56848993,7.45033597 C6.80399651,7.45033597 7.02985603,7.35653301 7.19637584,7.18956522 Z" id="Path" fill="#21B790"></path>
                        <path d="M12.7944966,3.44005435 C13.247361,3.2515546 13.4620931,2.73069926 13.2741356,2.27663975 C13.086178,1.82258025 12.5666936,1.60722841 12.113783,1.79561661 C11.6608725,1.98400482 11.4460128,2.50480726 11.6338591,2.95891304 C11.7240956,3.17705377 11.8970875,3.3503079 12.1147615,3.4405445 C12.3324356,3.53078109 12.5769523,3.53060477 12.7944966,3.44005435 Z" id="Path" fill="#21B790"></path>
                        <path d="M19.394698,2.12380435 C19.8850824,2.12380435 20.2826174,1.72524045 20.2826174,1.23358696 C20.2826174,0.741933467 19.8850824,0.343369565 19.394698,0.343369565 C18.9043136,0.343369565 18.5067785,0.741933467 18.5067785,1.23358696 C18.5067785,1.72524045 18.9043136,2.12380435 19.394698,2.12380435 L19.394698,2.12380435 Z" id="Path" fill="#21B790"></path>
                        <path d="M23.8617785,8.63298913 C23.214488,8.36453937 22.4726904,8.67295395 22.2048494,9.32188476 C21.9370083,9.97081557 22.2445303,10.714573 22.8917512,10.9831916 C23.538972,11.2518102 24.2808496,10.9435892 24.5488591,10.2947283 C24.6776064,9.98302614 24.6775429,9.6328072 24.5486826,9.32115202 C24.4198223,9.00949683 24.1727263,8.76194798 23.8617785,8.63298913 Z" id="Path" fill="#21B790"></path>
                        <ellipse id="Oval" fill="#21B790" cx="26.7327181" cy="12.0645652" rx="1.26845638" ry="1.27173913"></ellipse>
                        <path d="M27.8087919,15.9242935 C28.0768014,16.5731544 28.818679,16.8813755 29.4658998,16.6127569 C30.1131207,16.3441383 30.4206427,15.6003808 30.1528016,14.95145 C29.8849606,14.3025192 29.143163,13.9941046 28.4958725,14.2625543 C28.1849247,14.3915132 27.9378287,14.639062 27.8089684,14.9507172 C27.6801081,15.2623724 27.6800446,15.6125914 27.8087919,15.9242935 L27.8087919,15.9242935 Z" id="Path" fill="#21B790"></path>
                        <path d="M29.7812416,18.1477174 C29.0806925,18.1477174 28.5127852,18.7170944 28.5127852,19.4194565 C28.5127852,20.1218186 29.0806925,20.6911957 29.7812416,20.6911957 C30.4817907,20.6911957 31.049698,20.1218186 31.049698,19.4194565 C31.049698,18.7170944 30.4817907,18.1477174 29.7812416,18.1477174 Z" id="Path" fill="#21B790"></path>
                        <path d="M28.4958725,24.5742391 C29.143163,24.8426889 29.8849606,24.5342743 30.1528016,23.8853435 C30.4206427,23.2364127 30.1131207,22.4926552 29.4658998,22.2240366 C28.818679,21.955418 28.0768014,22.2636391 27.8087919,22.9125 C27.6800446,23.2242021 27.6801081,23.5744211 27.8089684,23.8860762 C27.9378287,24.1977314 28.1849247,24.4452803 28.4958725,24.5742391 L28.4958725,24.5742391 Z" id="Path" fill="#21B790"></path>
                        <path d="M27.629094,25.8756522 C27.1335854,25.3794136 26.3306998,25.3797121 25.8355585,25.876319 C25.3404172,26.3729259 25.3404172,27.1778894 25.8355585,27.6744962 C26.3306998,28.1711031 27.1335854,28.1714016 27.629094,27.675163 C27.8672809,27.4366252 28.0011153,27.1129389 28.0011153,26.7754076 C28.0011153,26.4378763 27.8672809,26.1141901 27.629094,25.8756522 Z" id="Path" fill="#21B790"></path>
                        <ellipse id="Oval" fill="#21B790" transform="translate(23.365410, 29.030349) rotate(-67.500000) translate(-23.365410, -29.030349) " cx="23.3654099" cy="29.0303493" rx="1.27125892" ry="1.26893767"></ellipse>
                        <path d="M19.394698,31.0940217 C20.0952471,31.0940217 20.6631544,30.5246447 20.6631544,29.8222826 C20.6631544,29.1199205 20.0952471,28.5505435 19.394698,28.5505435 C18.6941489,28.5505435 18.1262416,29.1199205 18.1262416,29.8222826 C18.1262416,30.1595688 18.2598822,30.4830406 18.4977639,30.721538 C18.7356456,30.9600353 19.0582824,31.0940217 19.394698,31.0940217 L19.394698,31.0940217 Z" id="Path" fill="#21B790"></path>
                        <path d="M14.940302,30.2038043 C15.4144503,30.4008015 15.9602799,30.2919135 16.3230984,29.927949 C16.6859169,29.5639845 16.7942133,29.0166805 16.5974549,28.5414172 C16.4006965,28.066154 15.9376641,27.7566053 15.4244155,27.7572103 C14.911167,27.7578172 14.448863,28.0684583 14.2532215,28.5441848 C13.9865216,29.1926985 14.2939397,29.9352564 14.940302,30.2038043 Z" id="Path" fill="#21B790"></path>
                        <path d="M12.9551678,27.6730435 C13.3182711,27.3094532 13.4270842,26.7623315 13.2308438,26.2869208 C13.0346034,25.8115102 12.5719783,25.5014896 12.0587919,25.5014896 C11.5456056,25.5014896 11.0829805,25.8115102 10.8867401,26.2869208 C10.6904997,26.7623315 10.7993128,27.3094532 11.1624161,27.6730435 C11.6576512,28.1689427 12.4599327,28.1689427 12.9551678,27.6730435 Z" id="Path" fill="#21B790"></path>
                        <path d="M10.980604,22.9125 C10.7839859,22.4373382 10.321209,22.1277348 9.80810736,22.1280853 C9.29500577,22.1284364 8.83265042,22.4386722 8.63667877,22.9141024 C8.44070713,23.3895326 8.54972174,23.9365069 8.9128794,24.2999224 C9.27603706,24.6633379 9.82180284,24.771609 10.2956376,24.5742391 C10.9423408,24.3048631 11.2489541,23.5610145 10.980604,22.9125 L10.980604,22.9125 Z" id="Path" fill="#21B790"></path>
                        <path d="M7.75026846,19.4194565 C7.75026846,20.1218186 8.31817572,20.6911957 9.01872483,20.6911957 C9.71927394,20.6911957 10.2871812,20.1218186 10.2871812,19.4194565 C10.2871812,18.7170944 9.71927394,18.1477174 9.01872483,18.1477174 C8.31817572,18.1477174 7.75026846,18.7170944 7.75026846,19.4194565 L7.75026846,19.4194565 Z" id="Path" fill="#21B790"></path>
                        <path d="M10.2956376,14.2625543 C9.82180284,14.0651845 9.27603706,14.1734555 8.9128794,14.5368711 C8.54972174,14.9002866 8.44070713,15.4472608 8.63667877,15.9226911 C8.83265042,16.3981213 9.29500577,16.7083571 9.80810736,16.7087082 C10.321209,16.7090586 10.7839859,16.3994553 10.980604,15.9242935 C11.2489541,15.275779 10.9423408,14.5319304 10.2956376,14.2625543 Z" id="Path" fill="#21B790"></path>
                        <ellipse id="Oval" fill="#21B790" cx="12.0587919" cy="12.0645652" rx="1.26845638" ry="1.27173913"></ellipse>
                        <path d="M14.940302,8.63298913 C14.4658035,8.82913694 14.1559642,9.29263739 14.155359,9.80721421 C14.1547555,10.321791 14.4635052,10.7860218 14.9375416,10.9832894 C15.4115781,11.180557 15.9574693,11.0719803 16.3204943,10.7082229 C16.6835193,10.3444654 16.7921263,9.79722323 16.5956376,9.32184783 C16.3277828,8.67381273 15.5871417,8.36559905 14.940302,8.63298913 Z" id="Path" fill="#21B790"></path>
                        <path d="M19.394698,7.7448913 C18.6941489,7.7448913 18.1262416,8.31426831 18.1262416,9.01663043 C18.1262416,9.71899256 18.6941489,10.2883696 19.394698,10.2883696 C20.0952471,10.2883696 20.6631544,9.71899256 20.6631544,9.01663043 C20.6631544,8.31426831 20.0952471,7.7448913 19.394698,7.7448913 Z" id="Path" fill="#21B790"></path>
                        <path d="M27.1787919,7.73429348 C26.7096063,7.41964641 26.0975509,7.41941853 25.6281322,7.73371612 C25.1587136,8.04801372 24.9244182,8.61491275 25.0345382,9.16997095 C25.1446583,9.72502915 25.5774974,10.158887 26.1311486,10.269162 C26.6847998,10.3794371 27.2501806,10.1444027 27.563557,9.67369565 C27.9910765,9.03154002 27.8188721,8.1635464 27.1787919,7.73429348 Z" id="Path" fill="#21B790"></path>
                        <path d="M29.1110738,11.2252174 C28.4717003,11.65543 28.3008038,12.5236061 28.7292175,13.165097 C29.1576311,13.8065879 30.0233818,13.978861 30.6636775,13.5500293 C31.3039733,13.1211976 31.4767334,12.2533923 31.049698,11.6109783 C30.8444135,11.301135 30.5243405,11.086183 30.1604272,11.013769 C29.796514,10.941355 29.4188228,11.0174611 29.1110738,11.2252174 L29.1110738,11.2252174 Z" id="Path" fill="#21B790"></path>
                        <path d="M30.4027852,17.2214674 C30.552923,17.9791884 31.2872561,18.4714547 32.0430406,18.3210261 C32.7988251,18.1705975 33.2899154,17.4344274 33.1399725,16.6766675 C32.9900296,15.9189077 32.2558232,15.4264516 31.5,15.5766848 C31.1369161,15.6488541 30.8173132,15.8627102 30.6115334,16.1711851 C30.4057535,16.4796599 30.3306617,16.8574718 30.4027852,17.2214674 Z" id="Path" fill="#21B790"></path>
                        <path d="M33.1405369,22.1579348 C33.2511278,21.6029932 33.0173405,21.0359129 32.5482229,20.7212034 C32.0791054,20.4064939 31.4670773,20.4061552 30.9976136,20.7203454 C30.5281499,21.0345355 30.2937383,21.6013567 30.4037181,22.1564204 C30.5136979,22.711484 30.9464022,23.1454384 31.5,23.2558696 C32.2553602,23.4065481 32.9896405,22.9151286 33.1405369,22.1579348 Z" id="Path" fill="#21B790"></path>
                        <path d="M29.115302,27.607337 C29.5844877,27.921984 30.1965431,27.9222119 30.6659617,27.6079143 C31.1353804,27.2936167 31.3696758,26.7267177 31.2595557,26.1716595 C31.1494357,25.6166013 30.7165965,25.1827435 30.1629453,25.0724684 C29.6092941,24.9621933 29.0439133,25.1972277 28.7305369,25.6679348 C28.5246619,25.9761557 28.4495297,26.3538226 28.52171,26.7176458 C28.5938902,27.0814691 28.8074538,27.4015637 29.115302,27.607337 L29.115302,27.607337 Z" id="Path" fill="#21B790"></path>
                        <ellipse id="Oval" fill="#21B790" transform="translate(26.408269, 29.937459) rotate(-78.750000) translate(-26.408269, -29.937459) " cx="26.4082694" cy="29.9374589" rx="1.39877578" ry="1.39543962"></ellipse>
                        <path d="M22.1324497,33.19875 C22.6860475,33.0883189 23.1187517,32.6543644 23.2287315,32.0993008 C23.3387113,31.5442371 23.1042998,30.977416 22.6348361,30.6632258 C22.1653723,30.3490356 21.5533443,30.3493743 21.0842267,30.6640838 C20.6151092,30.9787934 20.3813219,31.5458736 20.4919128,32.1008152 C20.563862,32.4647274 20.7772548,32.7849926 21.0850205,32.9909658 C21.3927862,33.196939 21.7696383,33.2716972 22.1324497,33.19875 Z" id="Path" fill="#21B790"></path>
                        <ellipse id="Oval" fill="#21B790" transform="translate(16.937675, 31.832350) rotate(-82.410000) translate(-16.937675, -31.832350) " cx="16.937675" cy="31.8323498" rx="1.39885013" ry="1.39536509"></ellipse>
                        <path d="M11.6127181,31.1025 C12.0819038,31.4171471 12.6939592,31.417375 13.1633778,31.1030774 C13.6327965,30.7887798 13.8670919,30.2218807 13.7569718,29.6668225 C13.6468518,29.1117643 13.2140126,28.6779065 12.6603614,28.5676314 C12.1067103,28.4573563 11.5413294,28.6923908 11.227953,29.1630978 C11.022078,29.4713188 10.9469459,29.8489856 11.0191261,30.2128089 C11.0913063,30.5766321 11.3048699,30.8967267 11.6127181,31.1025 L11.6127181,31.1025 Z" id="Path" fill="#21B790"></path>
                        <path d="M9.68043624,27.6136957 C10.3206677,27.1840783 10.4924557,26.3155338 10.0641874,25.6734844 C9.63591915,25.031435 8.76968111,24.8588768 8.12912849,25.2880126 C7.48857587,25.7171485 7.31613828,26.5855636 7.74392617,27.2279348 C7.94956265,27.5367209 8.26920162,27.7508807 8.63243035,27.8232374 C8.99565909,27.8955941 9.37267872,27.8202115 9.68043624,27.6136957 Z" id="Path" fill="#21B790"></path>
                        <path d="M8.38661074,21.6174457 C8.27646466,21.0624151 7.84363041,20.628591 7.28999955,20.5183266 C6.73636869,20.4080622 6.17101065,20.6430804 5.85763151,21.1137591 C5.54425237,21.5844378 5.54459016,22.1980498 5.85848733,22.6683814 C6.1723845,23.138713 6.73800095,23.3731053 7.29151007,23.2622283 C8.0467493,23.1109413 8.53690029,22.3747608 8.38661074,21.6174457 Z" id="Path" fill="#21B790"></path>
                        <path d="M5.65097315,16.6809783 C5.54102754,17.2361253 5.77556612,17.8029944 6.24516599,18.1171153 C6.71476586,18.4312363 7.3268866,18.4307077 7.79594608,18.1157762 C8.26500557,17.8008447 8.49856987,17.2335715 8.38767063,16.6786151 C8.27677139,16.1236588 7.84326267,15.6903804 7.28939597,15.5809239 C6.92659562,15.5086532 6.55002161,15.5839979 6.24268046,15.79035 C5.93533931,15.9967021 5.72246238,16.317121 5.65097315,16.6809783 L5.65097315,16.6809783 Z" id="Path" fill="#21B790"></path>
                        <path d="M9.67620805,11.2294565 C9.20702237,10.9148095 8.59496698,10.9145816 8.12554833,11.2288792 C7.65612968,11.5431768 7.4218343,12.1100758 7.53195433,12.665134 C7.64207436,13.2201922 8.07491355,13.65405 8.62856473,13.7643251 C9.18221592,13.8746002 9.74759675,13.6395658 10.0609732,13.1688587 C10.4884926,12.5267031 10.3162882,11.6587094 9.67620805,11.2294565 Z" id="Path" fill="#21B790"></path>
                        <path d="M13.1581208,10.0636957 C13.7983523,9.63407832 13.9701402,8.76553383 13.541872,8.12348441 C13.1136037,7.481435 12.2473657,7.30887678 11.6068131,7.73801262 C10.9662604,8.16714846 10.7938228,9.03556355 11.2216107,9.67793478 C11.4272472,9.98672089 11.7468862,10.2008807 12.1101149,10.2732374 C12.4733437,10.3455941 12.8503633,10.2702115 13.1581208,10.0636957 Z" id="Path" fill="#21B790"></path>
                        <path d="M16.6590604,5.64016304 C16.1054626,5.75059418 15.6727583,6.1845486 15.5627785,6.73961225 C15.4527987,7.29467591 15.6872103,7.86149709 16.156674,8.17568725 C16.6261377,8.48987741 17.2381658,8.48953875 17.7072833,8.17482921 C18.1764009,7.86011968 18.4101882,7.29303942 18.2995973,6.73809783 C18.2276481,6.37418567 18.0142552,6.05392043 17.7064896,5.84794722 C17.3987239,5.64197402 17.0218717,5.56721583 16.6590604,5.64016304 L16.6590604,5.64016304 Z" id="Path" fill="#21B790"></path>
                        <path d="M22.1261074,5.63804348 C21.3702677,5.49014664 20.6378305,5.9841574 20.4896165,6.74181605 C20.3414026,7.4994747 20.8334606,8.23426398 21.5890261,8.38356216 C22.3445916,8.53286033 23.0779389,8.0402086 23.2275503,7.28282609 C23.2995736,6.91822054 23.2239105,6.53986722 23.0172619,6.23127932 C22.8106133,5.92269142 22.4899702,5.70924133 22.1261074,5.63804348 Z" id="Path" fill="#21B790"></path>
                        <path d="M23.4093624,12.0009783 C23.1769148,12.3517236 23.2718222,12.8249566 23.6214229,13.0583665 C23.9710235,13.2917765 24.4431323,13.1971104 24.6762993,12.8468453 C24.9094663,12.4965801 24.8155303,12.0231524 24.4664094,11.7890217 C24.2982953,11.6762795 24.0923347,11.6352643 23.894006,11.6750327 C23.6956773,11.7148011 23.5212942,11.8320819 23.4093624,12.0009783 Z" id="Path" fill="#21B790"></path>
                        <path d="M25.9335906,14.1057065 C25.5844697,14.3398372 25.4905337,14.8132649 25.7237007,15.16353 C25.9568677,15.5137951 26.4289765,15.6084613 26.7785771,15.3750513 C27.1281778,15.1416414 27.2230852,14.6684084 26.9906376,14.317663 C26.8787058,14.1487667 26.7043227,14.0314858 26.505994,13.9917174 C26.3076653,13.9519491 26.1017047,13.9929643 25.9335906,14.1057065 L25.9335906,14.1057065 Z" id="Path" fill="#21B790"></path>
                        <path d="M26.865906,17.9166848 C26.9256855,18.2194813 27.1615341,18.4563436 27.4634466,18.5167937 C27.7653591,18.5772438 28.0738595,18.4493732 28.2450559,18.1928237 C28.4162524,17.9362741 28.4164197,17.6015853 28.2454797,17.3448639 C28.0745398,17.0881425 27.7661674,16.959962 27.4641946,17.0201087 C27.0528249,17.1032308 26.7855633,17.5037405 26.865906,17.9166848 Z" id="Path" fill="#21B790"></path>
                        <path d="M28.3647987,21.1956522 C28.447594,20.7825304 28.180707,20.3803272 27.7686622,20.2972645 C27.3566175,20.2142018 26.9554182,20.4817277 26.8725169,20.8948282 C26.7896156,21.3079286 27.0563994,21.7102006 27.4684228,21.7933696 C27.8803526,21.875331 28.2809289,21.6082205 28.3647987,21.1956522 Z" id="Path" fill="#21B790"></path>
                        <path d="M25.9483893,24.7120109 C26.2982293,24.9450601 26.7702407,24.849907 27.0030481,24.4994016 C27.2358555,24.1488962 27.1414338,23.6755656 26.7920728,23.4417952 C26.4427118,23.2080247 25.9705062,23.3022038 25.7369799,23.6522283 C25.6245287,23.8207775 25.5836193,24.0272711 25.623285,24.226113 C25.6629508,24.424955 25.7799289,24.5997894 25.9483893,24.7120109 Z" id="Path" fill="#21B790"></path>
                        <path d="M24.6947315,25.9752717 C24.4612053,25.6252473 23.9889996,25.5310682 23.6396386,25.7648386 C23.2902776,25.9986091 23.1958559,26.4719397 23.4286633,26.8224451 C23.6614707,27.1729505 24.1334822,27.2681036 24.4833221,27.0350543 C24.6517825,26.9228329 24.7687606,26.7479985 24.8084264,26.5491565 C24.8480921,26.3503146 24.8071827,26.1438209 24.6947315,25.9752717 L24.6947315,25.9752717 Z" id="Path" fill="#21B790"></path>
                        <path d="M21.1916779,28.406413 C21.6035346,28.3235112 21.870515,27.9217335 21.7881794,27.5087401 C21.7058438,27.0957467 21.3053317,26.8277319 20.8933341,26.9099274 C20.4813365,26.9921228 20.2136711,27.3934421 20.295302,27.8065761 C20.3781805,28.2200059 20.77907,28.4882732 21.1916779,28.406413 Z" id="Path" fill="#21B790"></path>
                        <path d="M17.6230872,28.4106522 C17.9250435,28.4716535 18.2339014,28.3441602 18.4054832,28.0876872 C18.577065,27.8312143 18.5775347,27.4963383 18.406673,27.2393825 C18.2358114,26.9824268 17.9273124,26.854063 17.6251862,26.9142127 C17.32306,26.9743623 17.0868862,27.2111638 17.0269128,27.5140761 C16.9464669,27.9263412 17.2125765,28.3265386 17.6230872,28.4106522 L17.6230872,28.4106522 Z" id="Path" fill="#21B790"></path>
                        <path d="M14.3272148,27.0456522 C14.6770548,27.2787014 15.1490662,27.1835483 15.3818736,26.8330429 C15.614681,26.4825375 15.5202593,26.0092069 15.1708983,25.7754365 C14.8215373,25.541666 14.3493317,25.6358451 14.1158054,25.9858696 C14.0027869,26.1542476 13.9615433,26.360915 14.0012432,26.5599283 C14.0409431,26.7589415 14.1582964,26.9338074 14.3272148,27.0456522 Z" id="Path" fill="#21B790"></path>
                        <path d="M12.8558054,24.731087 C13.202845,24.4969403 13.2954925,24.0254119 13.0629555,23.6767979 C12.8304186,23.328184 12.3603776,23.2339324 12.0119919,23.4660612 C11.6636063,23.69819 11.5682381,24.1691728 11.7987584,24.5191304 C11.9106902,24.6880268 12.0850733,24.8053076 12.283402,24.845076 C12.4817306,24.8848444 12.6876912,24.8438292 12.8558054,24.731087 L12.8558054,24.731087 Z" id="Path" fill="#21B790"></path>
                        <path d="M11.3273154,21.8188043 C11.7391722,21.7359025 12.0061525,21.3341248 11.923817,20.9211314 C11.8414814,20.508138 11.4409693,20.2401232 11.0289717,20.3223187 C10.6169741,20.4045141 10.3493087,20.8058334 10.4309396,21.2189674 C10.4697081,21.4180948 10.5861884,21.5934541 10.7545024,21.7060865 C10.9228165,21.8187189 11.129025,21.8592965 11.3273154,21.8188043 L11.3273154,21.8188043 Z" id="Path" fill="#21B790"></path>
                        <path d="M10.4267114,17.6432609 C10.3667199,17.9460152 10.4945696,18.2551856 10.7506283,18.4265679 C11.0066871,18.5979503 11.3405119,18.5977826 11.5963992,18.426143 C11.8522865,18.2545035 11.9798271,17.9452048 11.919533,17.6425109 C11.8592389,17.339817 11.622988,17.1033581 11.3209732,17.0434239 C10.908848,16.9616386 10.5085749,17.2301267 10.4267114,17.6432609 L10.4267114,17.6432609 Z" id="Path" fill="#21B790"></path>
                        <path d="M11.9974832,15.3944022 C12.3473232,15.6274514 12.8193346,15.5322983 13.0521421,15.1817929 C13.2849495,14.8312875 13.1905277,14.3579569 12.8411668,14.1241865 C12.4918058,13.890416 12.0196001,13.9845951 11.7860738,14.3346196 C11.6730554,14.5029976 11.6318117,14.709665 11.6715116,14.9086783 C11.7112116,15.1076915 11.8285649,15.2825574 11.9974832,15.3944022 L11.9974832,15.3944022 Z" id="Path" fill="#21B790"></path>
                        <path d="M14.0967785,12.8636413 C14.3303048,13.2136657 14.8025105,13.3078448 15.1518715,13.0740744 C15.5012324,12.840304 15.5956542,12.3669734 15.3628468,12.0164679 C15.1300393,11.6659625 14.6580279,11.5708095 14.3081879,11.8038587 C14.1392696,11.9157034 14.0219163,12.0905693 13.9822163,12.2895826 C13.9425164,12.4885959 13.9837601,12.6952633 14.0967785,12.8636413 Z" id="Path" fill="#21B790"></path>
                        <path d="M17.8958054,11.928913 C18.1978202,11.8689789 18.4340711,11.6325199 18.4943652,11.3298261 C18.5546593,11.0271322 18.4271188,10.7178335 18.1712314,10.5461939 C17.9153441,10.3745544 17.5815193,10.3743867 17.3254605,10.545769 C17.0694018,10.7171514 16.9415521,11.0263218 17.0015436,11.3290761 C17.0834071,11.7422103 17.4836802,12.0106983 17.8958054,11.928913 L17.8958054,11.928913 Z" id="Path" fill="#21B790"></path>
                        <path d="M21.7645973,11.324837 C21.8245888,11.0220826 21.6967392,10.7129122 21.4406804,10.5415299 C21.1846216,10.3701475 20.8507968,10.3703152 20.5949095,10.5419548 C20.3390222,10.7135943 20.2114816,11.022893 20.2717757,11.3255869 C20.3320698,11.6282808 20.5683207,11.8647398 20.8703356,11.9246739 C21.0683119,11.9645371 21.2739711,11.923658 21.4418032,11.8110825 C21.6096353,11.6985071 21.7258022,11.5235175 21.7645973,11.324837 Z" id="Path" fill="#21B790"></path>
                        <path d="M27.9356376,6.54309783 C28.5310752,6.94727912 29.3108553,6.95155982 29.9106718,6.55394004 C30.5104884,6.15632025 30.8119373,5.43529032 30.6741846,4.72770863 C30.5364319,4.02012694 29.9866699,3.46567048 29.2817423,3.32337608 C28.5768147,3.18108168 27.8558745,3.47903832 27.4557383,4.07804348 C26.9106894,4.89189273 27.1253415,5.99447602 27.9356376,6.54309783 Z" id="Path" fill="#21B790"></path>
                        <ellipse id="Oval" fill="#21B790" transform="translate(33.674485, 9.813813) rotate(-63.930000) translate(-33.674485, -9.813813) " cx="33.6744851" cy="9.81381273" rx="1.77954812" ry="1.77672748"></ellipse>
                        <path d="M35.9121141,14.2795109 C35.2073741,14.4194217 34.6561419,14.9712678 34.5155553,15.677625 C34.3749687,16.3839822 34.672727,17.105679 35.2699325,17.5060597 C35.867138,17.9064404 36.6461251,17.906619 37.2435133,17.5065124 C37.8409014,17.1064057 38.1389891,16.3848455 37.9987248,15.6784239 C37.9073484,15.2153386 37.6360733,14.8076805 37.2446757,14.5452783 C36.8532781,14.2828762 36.3738785,14.1872642 35.9121141,14.2795109 L35.9121141,14.2795109 Z" id="Path" fill="#21B790"></path>
                        <ellipse id="Oval" fill="#21B790" transform="translate(36.265715, 22.756078) rotate(-43.530000) translate(-36.265715, -22.756078) " cx="36.2657145" cy="22.7560778" rx="1.77802051" ry="1.77825623"></ellipse>
                        <path d="M34.6965101,27.4907609 C34.0992178,27.0907748 33.3204123,27.0909156 32.7232641,27.4911178 C32.1261159,27.8913199 31.828229,28.6127664 31.9685132,29.3190342 C32.1087975,30.0253019 32.6596249,30.5772966 33.3641352,30.7176135 C34.0686454,30.8579305 34.7880902,30.5589351 35.1869799,29.9600543 C35.4490804,29.5675588 35.5446672,29.0866452 35.4526541,28.623401 C35.360641,28.1601568 35.0885885,27.752645 34.6965101,27.4907609 Z" id="Path" fill="#21B790"></path>
                        <path d="M27.9884899,32.2555435 C27.391155,32.6554655 27.0929315,33.3767722 27.2328862,34.0831057 C27.3728409,34.7894392 27.9234108,35.3416922 28.6278554,35.4823395 C29.3323001,35.6229868 30.0518843,35.324329 30.4510534,34.7256353 C30.8502225,34.1269417 30.850363,33.3461206 30.4514094,32.7472826 C30.1902013,32.3541895 29.7837414,32.0814329 29.3216929,31.9891817 C28.8596445,31.8969305 28.3799723,31.9927646 27.9884899,32.2555435 Z" id="Path" fill="#21B790"></path>
                        <path d="M22.4347651,34.5743478 C21.7300251,34.7142587 21.1787929,35.2661048 21.0382063,35.972462 C20.8976197,36.6788192 21.195378,37.400516 21.7925835,37.8008967 C22.389789,38.2012773 23.1687761,38.201456 23.7661643,37.8013493 C24.3635524,37.4012427 24.6616401,36.6796825 24.5213758,35.9732609 C24.3300289,35.0095683 23.3961636,34.383483 22.4347651,34.5743478 Z" id="Path" fill="#21B790"></path>
                        <ellipse id="Oval" fill="#21B790" transform="translate(16.071528, 36.335371) rotate(-33.750000) translate(-16.071528, -36.335371) " cx="16.0715281" cy="36.335371" rx="1.77725877" ry="1.77901753"></ellipse>
                        <ellipse id="Oval" fill="#21B790" transform="translate(9.868487, 33.773861) rotate(-23.600000) translate(-9.868487, -33.773861) " cx="9.86848654" cy="33.7738605" rx="1.77657636" ry="1.77969898"></ellipse>
                        <path d="M6.59174497,28.0333696 C6.1942057,27.4322407 5.47420783,27.1309606 4.76838236,27.270391 C4.06255688,27.4098215 3.51036514,27.962413 3.36998132,28.6698044 C3.2295975,29.3771958 3.52875949,30.0996165 4.12759577,30.4993026 C4.72643205,30.8989887 5.50662087,30.8969678 6.10338926,30.4941848 C6.91293706,29.9477884 7.13102794,28.8488325 6.59174497,28.0333696 L6.59174497,28.0333696 Z" id="Path" fill="#21B790"></path>
                        <ellipse id="Oval" fill="#21B790" transform="translate(2.537891, 22.814161) rotate(-56.250000) translate(-2.537891, -22.814161) " cx="2.53789093" cy="22.8141614" rx="1.77901753" ry="1.77725877"></ellipse>
                        <ellipse id="Oval" fill="#21B790" transform="translate(2.524186, 16.085857) rotate(-76.180000) translate(-2.524186, -16.085857) " cx="2.52418647" cy="16.0858571" rx="1.78017287" ry="1.77610149"></ellipse>
                        <path d="M4.095,11.3481522 C4.91067583,11.8928176 6.01224708,11.672034 6.55637577,10.8548283 C7.10050446,10.0376226 6.88146518,8.93296576 6.06694942,8.38655804 C5.25243367,7.84015032 4.15039544,8.05857879 3.6045302,8.87461957 C3.34165065,9.26761113 3.24562018,9.74935371 3.33764626,10.2134588 C3.42967234,10.6775638 3.70218419,11.0858504 4.095,11.3481522 L4.095,11.3481522 Z" id="Path" fill="#21B790"></path>
                        <path d="M10.8030201,6.58125 C11.400135,6.18090223 11.697878,5.45932476 11.557389,4.75304369 C11.4169,4.04676262 10.8658516,3.49489644 10.1612393,3.35482204 C9.45662701,3.21474765 8.73724062,3.51405594 8.33858435,4.11315686 C7.93992808,4.71225778 7.94052656,5.49314446 8.34010067,6.09163043 C8.60164076,6.48437975 9.0082541,6.75670368 9.4702792,6.84855261 C9.9323043,6.94040155 10.4117951,6.84423195 10.8030201,6.58125 Z" id="Path" fill="#21B790"></path>
                        <ellipse id="Oval" fill="#21B790" transform="translate(16.009946, 2.517001) rotate(-56.250000) translate(-16.009946, -2.517001) " cx="16.0099464" cy="2.5170006" rx="1.77901753" ry="1.77725877"></ellipse>
                        <path d="M22.3819128,4.24972826 C23.0865109,4.39035551 23.8062085,4.09149642 24.2052823,3.49256222 C24.6043562,2.89362801 24.604178,2.11262494 24.2048308,1.51387386 C23.8054837,0.915122786 23.0856498,0.616593863 22.3811159,0.757544314 C21.676582,0.898494765 21.1261604,1.45115354 20.9866107,2.15771739 C20.8946022,2.62067684 20.9899674,3.10131715 21.2516922,3.49372766 C21.513417,3.88613816 21.9200228,4.15811539 22.3819128,4.24972826 L22.3819128,4.24972826 Z" id="Path" fill="#21B790"></path>
                        <path d="M53.2857383,28.2347283 C48.4930872,28.2347283 46.192953,26.4267391 46.192953,19.4321739 C46.192953,12.3210326 49.3006711,10.8225 53.4992617,10.8225 C58.2686577,10.8225 60.592047,12.0942391 60.592047,19.4088587 C60.592047,26.3779891 58.2686577,28.2347283 53.2857383,28.2347283 Z M53.4041275,13.6097283 C50.9369799,13.6097283 49.5607047,14.6080435 49.5607047,19.436413 C49.5607047,24.5763587 50.8651007,25.4559783 53.3660738,25.4559783 C55.7845973,25.4559783 57.2094966,24.6696196 57.2094966,19.4618478 C57.2010403,14.4851087 56.1566779,13.6054891 53.4041275,13.6054891 L53.4041275,13.6097283 Z" id="Shape" fill="#013743"></path>
                        <path d="M65.2980201,33.7286413 L63.471443,33.7286413 C63.067651,33.7286413 62.8541275,33.6099457 62.8541275,33.0143478 L62.8541275,16.7933152 C62.8541275,16.1744022 63.0655369,15.9603261 63.6130872,15.9603261 L65.1310067,15.9603261 C65.699698,15.9603261 65.9385906,16.0790217 65.9618456,16.4838587 L65.9851007,16.8166304 C66.7440604,16.0302717 68.0738255,15.7229348 69.5684899,15.7229348 C72.3908054,15.7229348 73.980604,17.0540217 73.980604,21.8124457 C73.980604,26.973587 72.1075168,28.1393478 68.1922148,28.1393478 C67.4797651,28.1393478 66.4840268,28.0206522 66.0337248,27.8065761 L66.0337248,33.0143478 C66.0294966,33.5611957 65.790604,33.7286413 65.2980201,33.7286413 Z M67.8116779,25.5471289 C70.2555705,25.5471289 70.7714094,24.6992935 70.7714094,21.7870109 C70.7714094,19.338913 70.3676174,18.4826087 68.4691611,18.4826087 C67.7820805,18.4826087 66.9047315,18.5758696 66.3550671,18.8853261 C66.2227645,18.9342578 66.1184698,19.0388224 66.0696644,19.1714674 C66.0287821,19.3182318 66.0130552,19.470891 66.0231544,19.6229348 L66.0231544,25.2842935 C66.6017452,25.4596068 67.2030139,25.5481734 67.8074497,25.5471289 L67.8116779,25.5471289 Z" id="Shape" fill="#013743"></path>
                        <path d="M81.787953,25.5216848 C82.8704605,25.5374472 83.9494622,25.3946361 84.9908054,25.0977717 C85.1875369,25.0204517 85.3968163,24.980212 85.6081208,24.9790761 C85.8387598,24.9701251 86.0407471,25.1328564 86.0816779,25.3605978 C86.2436494,25.8421968 86.3548932,26.3394717 86.4135906,26.8442935 C86.4341781,27.1177955 86.2696631,27.3712834 86.0119128,27.4632065 C84.9675503,28.0100543 82.9041946,28.2495652 81.5046644,28.2495652 C77.1623154,28.2495652 75.8325503,26.2974457 75.8325503,22.0159239 C75.8325503,17.4503804 77.6358725,15.6572283 81.5511745,15.6572283 C86.130302,15.6572283 86.6038591,18.2261413 86.6038591,22.0159239 C86.6038591,22.3741304 86.534094,22.683587 86.3438255,22.8255978 C86.1750966,22.9345801 85.9751368,22.9845131 85.7751342,22.9676087 L79.0565436,22.9676087 C79.1030537,25.0935326 80.0057718,25.5216848 81.787953,25.5216848 Z M83.5680201,20.62125 C83.5888523,20.4880924 83.5966411,20.3532109 83.5912752,20.2185326 C83.5912752,18.734837 83.2826174,17.9823913 81.5046644,17.9823913 C79.7267114,17.9823913 79.155906,18.8302174 79.1072819,20.62125 L83.5680201,20.62125 Z" id="Shape" fill="#013743"></path>
                        <path d="M91.5381544,27.9507065 L89.5678188,27.9507065 C89.1640268,27.9507065 88.9758725,27.7133152 88.9758725,27.285163 L88.9758725,16.7170109 C88.9758725,16.2422283 89.1872819,15.956087 89.6862081,15.956087 L91.394396,15.956087 C91.8933221,15.956087 92.0117114,16.0980978 92.0835906,16.5029348 L92.1301007,16.8590217 C92.8890604,16.0980978 94.455604,15.6932609 95.9354698,15.6932609 C98.189094,15.6932609 99.066443,16.2422283 99.4216107,17.1917935 C99.6605034,17.8107065 99.6837584,18.6436957 99.6837584,19.5233152 L99.6837584,27.2788043 C99.6837584,27.6815217 99.516745,27.9443478 99.066443,27.9443478 L97.0982215,27.9443478 C96.6944295,27.9443478 96.5041611,27.6815217 96.5041611,27.2788043 L96.5041611,20.3202717 C96.5183075,19.928077 96.4784695,19.5357988 96.3857718,19.1545109 C96.2187584,18.6542935 95.7684564,18.4635326 94.8192282,18.4635326 C94.1322671,18.4493283 93.4485742,18.562135 92.8023826,18.7963043 C92.6078279,18.856014 92.4350658,18.9717325 92.3055705,19.1290761 C92.1873179,19.3388742 92.137078,19.5803536 92.1618121,19.8200543 L92.1618121,27.2894022 C92.1470134,27.6857609 91.935604,27.9507065 91.5381544,27.9507065 Z" id="Path" fill="#013743"></path>
                        <path d="M109.736275,28.2347283 C104.943624,28.2347283 102.64349,26.4267391 102.64349,19.4321739 C102.64349,12.3210326 105.751208,10.8225 109.949799,10.8225 C114.719195,10.8225 117.042584,12.0942391 117.042584,19.4088587 C117.042584,26.3779891 114.719195,28.2347283 109.736275,28.2347283 Z M109.854664,13.6097283 C107.387517,13.6097283 106.011242,14.6080435 106.011242,19.436413 C106.011242,24.5763587 107.315638,25.4559783 109.816611,25.4559783 C112.235134,25.4559783 113.660034,24.6696196 113.660034,19.4618478 C113.651577,14.4851087 112.607215,13.6054891 109.854664,13.6054891 L109.854664,13.6097283 Z" id="Shape" fill="#013743"></path>
                        <path d="M123.097349,28.162663 C119.822617,28.162663 118.991779,26.3080435 118.991779,24.2605435 C118.991779,22.8573913 119.414597,21.9544565 120.368054,21.3122283 C121.127013,20.8120109 122.526544,20.5746196 124.139597,20.5746196 C124.837042,20.5687725 125.534295,20.6006121 126.228322,20.67 L126.228322,20.1231522 C126.240564,19.7920569 126.19183,19.4615352 126.084564,19.1481522 C125.919664,18.7242391 125.450336,18.4571739 124.069832,18.4571739 C123.220631,18.4571898 122.372623,18.520955 121.532919,18.6479348 C121.25351,18.7035263 120.971176,18.7431554 120.687282,18.7666304 C120.41359,18.7637191 120.182063,18.5629613 120.139732,18.2918478 C120.041095,17.8031472 119.985912,17.3066343 119.974832,16.8081522 C119.94105,16.4761242 120.169056,16.1744135 120.497013,16.1171739 C121.778154,15.7377717 123.439832,15.6423913 124.513792,15.6423913 C126.790671,15.6423913 127.953423,15.9518478 128.570738,16.5940761 C129.188054,17.2363043 129.376208,18.1392391 129.376208,19.5614674 L129.376208,27.1028804 C129.376208,27.7217935 129.116174,27.9507065 128.593993,27.9507065 L127.17755,27.9507065 C126.606745,27.9507065 126.418591,27.8320109 126.369966,27.4271739 L126.323456,27.0032609 C125.469362,27.8298913 124.329866,28.162663 123.097349,28.162663 Z M124.577215,22.7386957 C123.581477,22.7386957 122.869027,22.8828261 122.463121,23.1626087 C122.203087,23.3533696 122.012819,23.6628261 122.012819,24.2096739 C122.012819,25.1380435 122.435638,25.6933696 123.93453,25.6933696 C124.811879,25.6933696 125.429195,25.5259239 125.809732,25.2694565 C125.953798,25.1872167 126.069546,25.0630384 126.141644,24.9133696 C126.210598,24.6897572 126.242731,24.4563702 126.236779,24.2223913 L126.236779,22.8192391 C125.761107,22.7620109 125.06557,22.7386957 124.566644,22.7386957 L124.577215,22.7386957 Z" id="Shape" fill="#013743"></path>
                        <path d="M135.031409,27.9507065 L133.063188,27.9507065 C132.682651,27.9507065 132.469128,27.7599457 132.469128,27.285163 L132.469128,10.8945652 C132.469128,10.4706522 132.610772,10.203587 133.063188,10.203587 L135.077919,10.203587 C135.530336,10.203587 135.648725,10.4642935 135.648725,10.8691304 L135.648725,19.9557065 L136.597953,19.9557065 C137.189899,19.9557065 137.428792,19.8136957 137.655,19.4576087 L139.671846,16.4351087 C139.842541,16.1386591 140.159166,15.957262 140.50057,15.9603261 L142.494161,15.9603261 C142.874698,15.9603261 143.016342,16.151087 143.016342,16.4351087 C142.987534,16.6430332 142.90601,16.8400733 142.779564,17.0073913 C141.21302,19.3622283 140.40755,20.3838587 139.836745,21.1447826 C140.430805,22.0265217 141.117886,23.0969022 143.396879,26.7828261 C143.569712,26.9865766 143.684395,27.2333794 143.728792,27.4971196 C143.728792,27.7811413 143.466644,27.948587 143.157987,27.948587 L140.982584,27.948587 C140.634429,27.9496395 140.314426,27.7569775 140.151745,27.4483696 L137.452047,23.1202174 C137.215268,22.7386957 136.953121,22.6963043 136.502819,22.6963043 L135.657181,22.6963043 L135.657181,27.2872826 C135.648725,27.73875 135.411946,27.9507065 135.031409,27.9507065 Z" id="Path" fill="#013743"></path>
                        <path d="M148.22547,27.9507065 L146.255134,27.9507065 C145.876711,27.9507065 145.663188,27.7599457 145.663188,27.285163 L145.663188,10.7991848 C145.663188,10.3752717 145.804832,10.1315217 146.280503,10.1315217 L148.27198,10.1315217 C148.722282,10.1315217 148.842785,10.3710326 148.842785,10.7991848 L148.842785,27.2830435 C148.842785,27.73875 148.603893,27.9507065 148.22547,27.9507065 Z" id="Path" fill="#013743"></path>
                        <path d="M155.318255,28.162663 C152.045638,28.162663 151.214799,26.3080435 151.214799,24.2605435 C151.214799,22.8573913 151.637617,21.9544565 152.591074,21.3122283 C153.350034,20.8120109 154.749564,20.5746196 156.362617,20.5746196 C157.060062,20.5687725 157.757315,20.6006121 158.451342,20.67 L158.451342,20.1231522 C158.464669,19.7919981 158.415906,19.4612768 158.307584,19.1481522 C158.142685,18.7242391 157.673356,18.4571739 156.292852,18.4571739 C155.443651,18.4571898 154.595643,18.520955 153.75594,18.6479348 C153.47653,18.7035263 153.194196,18.7431554 152.910302,18.7666304 C152.636749,18.7644472 152.405423,18.5630864 152.364866,18.2918478 C152.264529,17.8033683 152.208629,17.3067653 152.197852,16.8081522 C152.16407,16.4761242 152.392076,16.1744135 152.720034,16.1171739 C154.001174,15.7377717 155.660738,15.6423913 156.736812,15.6423913 C159.013691,15.6423913 160.176443,15.9518478 160.793758,16.5940761 C161.411074,17.2363043 161.599228,18.1392391 161.599228,19.5614674 L161.599228,27.1028804 C161.599228,27.7217935 161.339195,27.9507065 160.817013,27.9507065 L159.417483,27.9507065 C158.846678,27.9507065 158.658523,27.8320109 158.609899,27.4271739 L158.563389,27.0032609 C157.683926,27.8298913 156.552886,28.162663 155.318255,28.162663 Z M156.798121,22.7386957 C155.802383,22.7386957 155.089933,22.8828261 154.684027,23.1626087 C154.423993,23.3533696 154.233725,23.6628261 154.233725,24.2096739 C154.233725,25.1380435 154.656544,25.6933696 156.155436,25.6933696 C157.034899,25.6933696 157.650101,25.5259239 158.030638,25.2694565 C158.174704,25.1872167 158.290452,25.0630384 158.36255,24.9133696 C158.432529,24.6899866 158.464686,24.4564278 158.457685,24.2223913 L158.457685,22.8192391 C157.975671,22.7620109 157.288591,22.7386957 156.789664,22.7386957 L156.798121,22.7386957 Z" id="Shape" fill="#013743"></path>
                        <path d="M167.13604,27.9507065 L165.167819,27.9507065 C164.764027,27.9507065 164.573758,27.7133152 164.573758,27.285163 L164.573758,16.7170109 C164.573758,16.2422283 164.785168,15.956087 165.286208,15.956087 L166.98594,15.956087 C167.484866,15.956087 167.601141,16.0980978 167.67302,16.5029348 L167.721644,16.8590217 C168.480604,16.0980978 170.047148,15.6932609 171.527013,15.6932609 C173.780638,15.6932609 174.657987,16.2422283 175.015268,17.1917935 C175.252047,17.8107065 175.275302,18.6436957 175.275302,19.5233152 L175.275302,27.2788043 C175.275302,27.6815217 175.110403,27.9443478 174.657987,27.9443478 L172.693993,27.9443478 C172.290201,27.9443478 172.099933,27.6815217 172.099933,27.2788043 L172.099933,20.3202717 C172.11469,19.9281772 172.075565,19.5359114 171.983658,19.1545109 C171.816644,18.6542935 171.366342,18.4635326 170.417114,18.4635326 C169.730136,18.4490855 169.046399,18.5618995 168.400268,18.7963043 C168.205054,18.8558695 168.031574,18.9715767 167.901342,19.1290761 C167.785121,19.3395944 167.735708,19.580645 167.759698,19.8200543 L167.759698,27.2894022 C167.753356,27.6857609 167.539832,27.9507065 167.13604,27.9507065 Z" id="Path" fill="#013743"></path>
                        <path d="M188.126879,27.9507065 L186.678725,27.9507065 C186.133289,27.9507065 185.94302,27.8786413 185.89651,27.4504891 L185.85,27.0944022 C185.042416,27.9422283 183.807785,28.211413 182.243356,28.211413 C179.395671,28.211413 177.736107,26.6196196 177.736107,22.1939674 C177.736107,17.0328261 179.657819,15.6763043 183.69151,15.6763043 C184.355336,15.6763043 185.279195,15.7716848 185.706242,15.9391304 L185.706242,10.8521739 C185.706242,10.3053261 185.968389,10.1378804 186.441946,10.1378804 L188.268523,10.1378804 C188.64906,10.1378804 188.885839,10.2586957 188.885839,10.8521739 L188.885839,27.1728261 C188.894295,27.7811413 188.680772,27.9507065 188.126879,27.9507065 Z M185.706242,18.6733696 C185.30245,18.4847283 184.54349,18.412663 183.928289,18.412663 C181.530906,18.412663 180.93896,19.2604891 180.93896,22.147337 C180.93896,24.5975543 181.573188,25.4771739 183.334228,25.4771739 C184.023423,25.4771739 184.814094,25.3817935 185.374329,25.0257065 C185.486382,24.9464124 185.57657,24.8399479 185.636477,24.71625 C185.695449,24.5646297 185.719304,24.4015608 185.706242,24.2393478 L185.706242,18.6733696 Z" id="Shape" fill="#013743"></path>
                    </g>
                </g>
            </g>
        </g>
    </g>
</svg>
