<?xml version="1.0" encoding="UTF-8"?>
<svg width="1000px" height="255px" viewBox="0 0 1000 255" version="1.1" xmlns="http://www.w3.org/2000/svg" xmlns:xlink="http://www.w3.org/1999/xlink">
    <!-- Generator: Sketch 59.1 (86144) - https://sketch.com -->
    <title>OpenOakland-logo-color</title>
    <desc>Created with Sketch.</desc>
    <g id="OpenOakland-logo-color" stroke="none" stroke-width="1" fill="none" fill-rule="evenodd">
        <path d="M147.138,59.029 C145.617,62.703 147.361,66.915 151.035,68.436 C154.709,69.958 158.921,68.214 160.442,64.54 C161.964,60.866 160.219,56.654 156.546,55.132 C152.872,53.611 148.66,55.355 147.138,59.029" id="Fill-1" fill="#22AD85"></path>
        <path d="M171.627,72.013 C168.815,74.825 168.815,79.384 171.627,82.196 C174.439,85.007 178.998,85.007 181.809,82.196 C184.621,79.384 184.621,74.825 181.809,72.013 C178.998,69.201 174.439,69.201 171.627,72.013" id="Fill-2" fill="#22AD85"></path>
        <path d="M194.793,106.684 C198.467,105.163 200.212,100.951 198.69,97.277 C197.168,93.603 192.957,91.859 189.283,93.38 C185.609,94.902 183.864,99.114 185.386,102.788 C186.908,106.461 191.12,108.206 194.793,106.684" id="Fill-3" fill="#22AD85"></path>
        <path d="M204.618,127.078 C204.618,123.101 201.394,119.878 197.418,119.878 C193.441,119.878 190.218,123.101 190.218,127.078 C190.218,131.054 193.441,134.278 197.418,134.278 C201.394,134.278 204.618,131.054 204.618,127.078" id="Fill-4" fill="#22AD85"></path>
        <path d="M189.283,160.775 C192.956,162.297 197.168,160.552 198.69,156.878 C200.212,153.205 198.467,148.993 194.793,147.471 C191.119,145.949 186.908,147.694 185.386,151.368 C183.864,155.041 185.609,159.253 189.283,160.775" id="Fill-5" fill="#22AD85"></path>
        <path d="M181.809,171.96 C178.997,169.148 174.438,169.148 171.627,171.96 C168.815,174.771 168.815,179.33 171.627,182.142 C174.438,184.954 178.997,184.954 181.809,182.142 C184.621,179.33 184.621,174.771 181.809,171.96" id="Fill-6" fill="#22AD85"></path>
        <path d="M160.442,189.615 C158.92,185.942 154.708,184.197 151.035,185.719 C147.361,187.241 145.616,191.452 147.138,195.126 C148.66,198.8 152.871,200.544 156.545,199.023 C160.219,197.501 161.964,193.289 160.442,189.615" id="Fill-7" fill="#22AD85"></path>
        <path d="M126.744,190.55 C122.768,190.55 119.544,193.774 119.544,197.75 C119.544,201.727 122.768,204.95 126.744,204.95 C130.721,204.95 133.945,201.727 133.945,197.75 C133.945,193.774 130.721,190.55 126.744,190.55" id="Fill-8" fill="#22AD85"></path>
        <path d="M106.351,195.126 C107.873,191.452 106.128,187.24 102.454,185.719 C98.781,184.197 94.569,185.941 93.047,189.615 C91.525,193.289 93.27,197.501 96.944,199.023 C100.618,200.544 104.829,198.8 106.351,195.126" id="Fill-9" fill="#22AD85"></path>
        <path d="M81.862,182.142 C84.674,179.33 84.674,174.771 81.862,171.959 C79.051,169.148 74.492,169.148 71.68,171.959 C68.868,174.771 68.868,179.33 71.68,182.142 C74.492,184.954 79.051,184.954 81.862,182.142" id="Fill-10" fill="#22AD85"></path>
        <path d="M54.799,156.878 C56.321,160.552 60.533,162.296 64.207,160.775 C67.88,159.253 69.625,155.041 68.103,151.367 C66.582,147.693 62.37,145.949 58.696,147.471 C55.022,148.992 53.278,153.204 54.799,156.878" id="Fill-11" fill="#22AD85"></path>
        <path d="M48.872,127.077 C48.872,131.054 52.095,134.277 56.072,134.277 C60.048,134.277 63.272,131.054 63.272,127.077 C63.272,123.101 60.048,119.877 56.072,119.877 C52.095,119.877 48.872,123.101 48.872,127.077" id="Fill-12" fill="#22AD85"></path>
        <path d="M64.207,93.38 C60.533,91.858 56.321,93.603 54.8,97.277 C53.278,100.95 55.022,105.162 58.696,106.684 C62.37,108.206 66.582,106.461 68.104,102.787 C69.625,99.113 67.881,94.902 64.207,93.38" id="Fill-13" fill="#22AD85"></path>
        <path d="M71.68,82.195 C74.492,85.007 79.051,85.007 81.863,82.195 C84.675,79.383 84.675,74.825 81.863,72.013 C79.051,69.201 74.492,69.201 71.68,72.013 C68.869,74.825 68.869,79.383 71.68,82.195" id="Fill-14" fill="#22AD85"></path>
        <path d="M93.048,64.539 C94.569,68.213 98.781,69.958 102.455,68.436 C106.129,66.914 107.873,62.703 106.352,59.029 C104.83,55.355 100.618,53.611 96.944,55.132 C93.271,56.654 91.526,60.866 93.048,64.539" id="Fill-15" fill="#22AD85"></path>
        <path d="M126.745,63.605 C130.721,63.605 133.945,60.381 133.945,56.405 C133.945,52.428 130.721,49.204 126.745,49.204 C122.769,49.204 119.545,52.428 119.545,56.405 C119.545,60.381 122.769,63.605 126.745,63.605" id="Fill-16" fill="#22AD85"></path>
        <path d="M157.972,51.689 C160.115,52.576 162.572,51.559 163.46,49.416 C164.347,47.273 163.33,44.816 161.187,43.928 C159.044,43.04 156.587,44.058 155.699,46.201 C154.811,48.344 155.829,50.801 157.972,51.689" id="Fill-17" fill="#22AD85"></path>
        <path d="M190.385,69.378 C192.025,67.737 192.025,65.078 190.385,63.438 C188.745,61.798 186.085,61.798 184.445,63.438 C182.805,65.078 182.805,67.737 184.445,69.378 C186.085,71.018 188.745,71.018 190.385,69.378" id="Fill-18" fill="#22AD85"></path>
        <path d="M202.134,95.851 C203.021,97.994 205.478,99.011 207.621,98.124 C209.764,97.236 210.782,94.779 209.894,92.636 C209.007,90.493 206.55,89.475 204.407,90.363 C202.264,91.251 201.246,93.708 202.134,95.851" id="Fill-19" fill="#22AD85"></path>
        <path d="M212.545,122.878 C210.226,122.878 208.345,124.758 208.345,127.078 C208.345,129.397 210.226,131.278 212.545,131.278 C214.865,131.278 216.745,129.397 216.745,127.078 C216.745,124.758 214.865,122.878 212.545,122.878" id="Fill-20" fill="#22AD85"></path>
        <path d="M207.621,156.032 C205.478,155.144 203.021,156.162 202.134,158.305 C201.246,160.448 202.264,162.905 204.407,163.792 C206.55,164.68 209.007,163.662 209.894,161.519 C210.782,159.376 209.764,156.919 207.621,156.032" id="Fill-21" fill="#22AD85"></path>
        <path d="M184.445,184.778 C182.805,186.418 182.805,189.077 184.445,190.718 C186.085,192.358 188.744,192.358 190.384,190.718 C192.025,189.077 192.025,186.418 190.384,184.778 C188.744,183.138 186.085,183.138 184.445,184.778" id="Fill-22" fill="#22AD85"></path>
        <path d="M157.972,202.466 C155.829,203.354 154.811,205.811 155.699,207.954 C156.586,210.097 159.043,211.115 161.186,210.227 C163.329,209.339 164.347,206.882 163.459,204.739 C162.572,202.596 160.115,201.579 157.972,202.466" id="Fill-23" fill="#22AD85"></path>
        <path d="M126.744,208.678 C124.425,208.678 122.544,210.558 122.544,212.878 C122.544,215.197 124.425,217.078 126.744,217.078 C129.064,217.078 130.945,215.197 130.945,212.878 C130.945,210.558 129.064,208.678 126.744,208.678" id="Fill-24" fill="#22AD85"></path>
        <path d="M95.517,202.466 C93.374,201.579 90.917,202.596 90.03,204.739 C89.142,206.882 90.16,209.339 92.303,210.227 C94.446,211.115 96.903,210.097 97.79,207.954 C98.678,205.811 97.66,203.354 95.517,202.466" id="Fill-25" fill="#22AD85"></path>
        <path d="M63.105,184.777 C61.464,186.418 61.464,189.077 63.105,190.717 C64.745,192.357 67.404,192.357 69.044,190.717 C70.685,189.077 70.685,186.418 69.044,184.777 C67.404,183.137 64.745,183.137 63.105,184.777" id="Fill-26" fill="#22AD85"></path>
        <path d="M51.356,158.304 C50.468,156.161 48.011,155.144 45.868,156.031 C43.725,156.919 42.707,159.376 43.595,161.519 C44.483,163.662 46.94,164.68 49.083,163.792 C51.226,162.904 52.243,160.447 51.356,158.304" id="Fill-27" fill="#22AD85"></path>
        <path d="M45.144,127.077 C45.144,124.758 43.264,122.877 40.944,122.877 C38.625,122.877 36.744,124.758 36.744,127.077 C36.744,129.397 38.625,131.277 40.944,131.277 C43.264,131.277 45.144,129.397 45.144,127.077" id="Fill-28" fill="#22AD85"></path>
        <path d="M45.868,98.123 C48.011,99.011 50.468,97.993 51.356,95.85 C52.244,93.707 51.226,91.25 49.083,90.363 C46.94,89.475 44.483,90.493 43.595,92.636 C42.708,94.779 43.725,97.236 45.868,98.123" id="Fill-29" fill="#22AD85"></path>
        <path d="M69.045,69.377 C70.685,67.737 70.685,65.078 69.045,63.437 C67.404,61.797 64.745,61.797 63.105,63.437 C61.465,65.078 61.465,67.737 63.105,69.377 C64.745,71.017 67.404,71.017 69.045,69.377" id="Fill-30" fill="#22AD85"></path>
        <path d="M95.518,51.689 C97.661,50.801 98.678,48.344 97.791,46.201 C96.903,44.058 94.446,43.04 92.303,43.928 C90.16,44.816 89.143,47.272 90.03,49.415 C90.918,51.559 93.375,52.576 95.518,51.689" id="Fill-31" fill="#22AD85"></path>
        <path d="M126.745,45.477 C129.065,45.477 130.945,43.597 130.945,41.277 C130.945,38.957 129.065,37.077 126.745,37.077 C124.425,37.077 122.545,38.957 122.545,41.277 C122.545,43.597 124.425,45.477 126.745,45.477" id="Fill-32" fill="#22AD85"></path>
        <path d="M147.823,76.19 C144.762,74.922 141.252,76.376 139.984,79.437 C138.716,82.499 140.17,86.009 143.231,87.277 C146.292,88.545 149.802,87.091 151.07,84.03 C152.339,80.968 150.885,77.458 147.823,76.19" id="Fill-33" fill="#22AD85"></path>
        <path d="M157.207,88.13 C154.864,90.473 154.864,94.272 157.207,96.615 C159.55,98.958 163.349,98.958 165.692,96.615 C168.036,94.272 168.036,90.473 165.692,88.13 C163.349,85.787 159.55,85.787 157.207,88.13" id="Fill-34" fill="#22AD85"></path>
        <path d="M166.546,110.592 C167.814,113.653 171.324,115.107 174.385,113.839 C177.447,112.571 178.9,109.061 177.632,105.999 C176.364,102.938 172.854,101.484 169.793,102.752 C166.731,104.02 165.278,107.53 166.546,110.592" id="Fill-35" fill="#22AD85"></path>
        <path d="M175.825,121.078 C172.511,121.078 169.825,123.764 169.825,127.078 C169.825,130.391 172.511,133.078 175.825,133.078 C179.139,133.078 181.825,130.391 181.825,127.078 C181.825,123.764 179.139,121.078 175.825,121.078" id="Fill-36" fill="#22AD85"></path>
        <path d="M169.793,151.403 C172.854,152.671 176.364,151.217 177.632,148.156 C178.9,145.094 177.446,141.585 174.385,140.317 C171.323,139.048 167.814,140.502 166.546,143.564 C165.277,146.625 166.731,150.135 169.793,151.403" id="Fill-37" fill="#22AD85"></path>
        <path d="M165.692,157.54 C163.349,155.197 159.55,155.197 157.207,157.54 C154.864,159.883 154.864,163.682 157.207,166.025 C159.55,168.368 163.349,168.368 165.692,166.025 C168.035,163.682 168.035,159.883 165.692,157.54" id="Fill-38" fill="#22AD85"></path>
        <path d="M147.823,177.965 C150.884,176.697 152.338,173.187 151.07,170.126 C149.802,167.064 146.292,165.61 143.231,166.878 C140.169,168.147 138.715,171.656 139.983,174.718 C141.252,177.779 144.761,179.233 147.823,177.965" id="Fill-39" fill="#22AD85"></path>
        <path d="M126.744,182.158 C130.058,182.158 132.745,179.471 132.745,176.158 C132.745,172.844 130.058,170.158 126.744,170.158 C123.431,170.158 120.744,172.844 120.744,176.158 C120.744,179.471 123.431,182.158 126.744,182.158" id="Fill-40" fill="#22AD85"></path>
        <path d="M105.666,177.965 C108.728,179.233 112.238,177.779 113.506,174.718 C114.774,171.656 113.32,168.146 110.258,166.878 C107.197,165.61 103.687,167.064 102.419,170.125 C101.151,173.187 102.605,176.697 105.666,177.965" id="Fill-41" fill="#22AD85"></path>
        <path d="M96.282,166.025 C98.625,163.682 98.625,159.883 96.282,157.54 C93.939,155.196 90.14,155.196 87.797,157.54 C85.454,159.883 85.454,163.682 87.797,166.025 C90.14,168.368 93.939,168.368 96.282,166.025" id="Fill-42" fill="#22AD85"></path>
        <path d="M86.944,143.563 C85.676,140.502 82.166,139.048 79.104,140.316 C76.043,141.584 74.589,145.094 75.857,148.156 C77.125,151.217 80.635,152.671 83.697,151.403 C86.758,150.135 88.212,146.625 86.944,143.563" id="Fill-43" fill="#22AD85"></path>
        <path d="M71.664,127.077 C71.664,130.391 74.351,133.077 77.664,133.077 C80.978,133.077 83.665,130.391 83.665,127.077 C83.665,123.764 80.978,121.077 77.664,121.077 C74.351,121.077 71.664,123.764 71.664,127.077" id="Fill-44" fill="#22AD85"></path>
        <path d="M83.697,102.752 C80.635,101.484 77.125,102.938 75.857,105.999 C74.589,109.06 76.043,112.57 79.104,113.838 C82.166,115.106 85.676,113.653 86.944,110.591 C88.212,107.53 86.758,104.02 83.697,102.752" id="Fill-45" fill="#22AD85"></path>
        <path d="M87.797,96.615 C90.14,98.958 93.939,98.958 96.283,96.615 C98.626,94.272 98.626,90.473 96.283,88.13 C93.939,85.787 90.14,85.787 87.797,88.13 C85.454,90.473 85.454,94.272 87.797,96.615" id="Fill-46" fill="#22AD85"></path>
        <path d="M105.667,76.19 C102.605,77.458 101.151,80.968 102.419,84.029 C103.688,87.091 107.197,88.545 110.259,87.277 C113.32,86.008 114.774,82.499 113.506,79.437 C112.238,76.376 108.728,74.922 105.667,76.19" id="Fill-47" fill="#22AD85"></path>
        <path d="M126.745,71.997 C123.431,71.997 120.745,74.684 120.745,77.997 C120.745,81.311 123.431,83.997 126.745,83.997 C130.059,83.997 132.745,81.311 132.745,77.997 C132.745,74.684 130.059,71.997 126.745,71.997" id="Fill-48" fill="#22AD85"></path>
        <path d="M163.561,71.952 C160.531,69.927 156.433,70.742 154.408,73.773 C152.383,76.803 153.198,80.901 156.229,82.925 C159.259,84.95 163.357,84.135 165.381,81.105 C167.406,78.074 166.591,73.977 163.561,71.952" id="Fill-49" fill="#22AD85"></path>
        <path d="M172.701,88.417 C169.671,90.441 168.856,94.539 170.881,97.569 C172.905,100.599 177.003,101.415 180.033,99.39 C183.064,97.365 183.879,93.267 181.854,90.237 C179.829,87.207 175.731,86.392 172.701,88.417" id="Fill-50" fill="#22AD85"></path>
        <path d="M178.813,116.705 C179.524,120.28 182.998,122.601 186.573,121.89 C190.147,121.179 192.468,117.705 191.757,114.131 C191.046,110.556 187.572,108.235 183.998,108.946 C180.424,109.657 178.102,113.131 178.813,116.705" id="Fill-51" fill="#22AD85"></path>
        <path d="M191.763,139.995 C192.474,136.421 190.153,132.947 186.578,132.236 C183.004,131.525 179.53,133.846 178.819,137.421 C178.108,140.995 180.429,144.469 184.004,145.18 C187.578,145.891 191.052,143.57 191.763,139.995" id="Fill-52" fill="#22AD85"></path>
        <path d="M172.718,165.714 C175.748,167.739 179.846,166.924 181.87,163.894 C183.895,160.863 183.08,156.766 180.05,154.741 C177.019,152.716 172.922,153.531 170.897,156.561 C168.872,159.592 169.687,163.689 172.718,165.714" id="Fill-53" fill="#22AD85"></path>
        <path d="M163.585,182.187 C166.615,180.162 167.43,176.064 165.406,173.034 C163.381,170.004 159.283,169.189 156.253,171.213 C153.223,173.238 152.408,177.336 154.432,180.366 C156.457,183.396 160.555,184.211 163.585,182.187" id="Fill-54" fill="#22AD85"></path>
        <path d="M139.691,192.09 C143.266,191.379 145.587,187.905 144.876,184.331 C144.165,180.756 140.691,178.435 137.117,179.146 C133.542,179.857 131.221,183.331 131.932,186.905 C132.643,190.48 136.117,192.801 139.691,192.09" id="Fill-55" fill="#22AD85"></path>
        <path d="M113.827,192.096 C117.401,192.807 120.875,190.485 121.586,186.911 C122.297,183.337 119.976,179.863 116.401,179.152 C112.827,178.441 109.353,180.762 108.642,184.336 C107.931,187.911 110.252,191.385 113.827,192.096" id="Fill-56" fill="#22AD85"></path>
        <path d="M89.929,182.203 C92.959,184.228 97.057,183.413 99.081,180.382 C101.106,177.352 100.291,173.254 97.261,171.23 C94.231,169.205 90.133,170.02 88.108,173.05 C86.083,176.08 86.898,180.178 89.929,182.203" id="Fill-57" fill="#22AD85"></path>
        <path d="M80.788,165.738 C83.818,163.714 84.633,159.616 82.609,156.586 C80.584,153.555 76.486,152.74 73.456,154.765 C70.426,156.79 69.611,160.888 71.635,163.918 C73.66,166.948 77.758,167.763 80.788,165.738" id="Fill-58" fill="#22AD85"></path>
        <path d="M74.676,137.449 C73.965,133.875 70.491,131.554 66.917,132.265 C63.342,132.976 61.021,136.45 61.732,140.024 C62.443,143.599 65.917,145.92 69.491,145.209 C73.066,144.498 75.387,141.024 74.676,137.449" id="Fill-59" fill="#22AD85"></path>
        <path d="M61.727,114.159 C61.015,117.734 63.337,121.208 66.911,121.919 C70.486,122.63 73.959,120.309 74.67,116.734 C75.381,113.16 73.06,109.686 69.486,108.975 C65.911,108.264 62.438,110.585 61.727,114.159" id="Fill-60" fill="#22AD85"></path>
        <path d="M80.772,88.441 C77.742,86.416 73.644,87.231 71.619,90.261 C69.594,93.292 70.41,97.389 73.44,99.414 C76.47,101.439 80.568,100.624 82.592,97.594 C84.617,94.563 83.802,90.465 80.772,88.441" id="Fill-61" fill="#22AD85"></path>
        <path d="M97.236,82.942 C100.267,80.917 101.082,76.819 99.057,73.789 C97.032,70.759 92.934,69.944 89.904,71.968 C86.874,73.993 86.059,78.091 88.084,81.121 C90.108,84.151 94.206,84.966 97.236,82.942" id="Fill-62" fill="#22AD85"></path>
        <path d="M113.798,62.065 C110.224,62.776 107.902,66.25 108.613,69.824 C109.324,73.399 112.798,75.72 116.373,75.009 C119.947,74.298 122.268,70.824 121.557,67.25 C120.846,63.675 117.372,61.354 113.798,62.065" id="Fill-63" fill="#22AD85"></path>
        <path d="M139.663,62.059 C136.088,61.348 132.614,63.669 131.903,67.244 C131.192,70.818 133.514,74.292 137.088,75.003 C140.662,75.714 144.136,73.393 144.847,69.819 C145.558,66.244 143.237,62.77 139.663,62.059" id="Fill-64" fill="#22AD85"></path>
        <path d="M145.727,92.084 C144.623,93.737 145.068,95.972 146.72,97.076 C148.373,98.181 150.608,97.736 151.713,96.083 C152.817,94.43 152.373,92.195 150.72,91.091 C149.067,89.986 146.832,90.431 145.727,92.084" id="Fill-65" fill="#22AD85"></path>
        <path d="M157.674,102.012 C156.021,103.116 155.576,105.351 156.681,107.004 C157.785,108.657 160.02,109.102 161.673,107.997 C163.326,106.893 163.771,104.658 162.666,103.005 C161.562,101.352 159.327,100.907 157.674,102.012" id="Fill-66" fill="#22AD85"></path>
        <path d="M162.084,119.988 C162.472,121.938 164.367,123.204 166.316,122.816 C168.266,122.428 169.532,120.534 169.144,118.584 C168.756,116.634 166.861,115.368 164.912,115.756 C162.962,116.144 161.696,118.039 162.084,119.988" id="Fill-67" fill="#22AD85"></path>
        <path d="M169.167,135.456 C169.555,133.506 168.289,131.611 166.339,131.224 C164.389,130.836 162.495,132.102 162.107,134.052 C161.719,136.001 162.985,137.896 164.935,138.284 C166.884,138.672 168.779,137.406 169.167,135.456" id="Fill-68" fill="#22AD85"></path>
        <path d="M157.739,152.046 C159.392,153.15 161.627,152.705 162.732,151.053 C163.836,149.4 163.391,147.164 161.738,146.06 C160.086,144.956 157.85,145.4 156.746,147.053 C155.642,148.706 156.086,150.941 157.739,152.046" id="Fill-69" fill="#22AD85"></path>
        <path d="M151.81,158.007 C150.706,156.354 148.471,155.909 146.818,157.014 C145.165,158.118 144.721,160.353 145.825,162.006 C146.929,163.659 149.164,164.103 150.817,162.999 C152.47,161.895 152.915,159.659 151.81,158.007" id="Fill-70" fill="#22AD85"></path>
        <path d="M135.238,169.477 C137.188,169.089 138.454,167.194 138.066,165.244 C137.678,163.295 135.784,162.029 133.834,162.417 C131.884,162.804 130.618,164.699 131.006,166.649 C131.394,168.599 133.289,169.865 135.238,169.477" id="Fill-71" fill="#22AD85"></path>
        <path d="M118.366,169.5 C120.316,169.888 122.211,168.621 122.599,166.672 C122.986,164.722 121.72,162.827 119.771,162.439 C117.821,162.052 115.926,163.318 115.538,165.267 C115.15,167.217 116.417,169.112 118.366,169.5" id="Fill-72" fill="#22AD85"></path>
        <path d="M102.77,163.064 C104.423,164.169 106.658,163.724 107.762,162.071 C108.867,160.418 108.422,158.183 106.769,157.079 C105.116,155.974 102.881,156.419 101.777,158.072 C100.672,159.725 101.117,161.96 102.77,163.064" id="Fill-73" fill="#22AD85"></path>
        <path d="M95.815,152.143 C97.468,151.039 97.913,148.804 96.809,147.151 C95.704,145.498 93.469,145.053 91.816,146.158 C90.163,147.262 89.719,149.497 90.823,151.15 C91.928,152.803 94.163,153.247 95.815,152.143" id="Fill-74" fill="#22AD85"></path>
        <path d="M88.578,138.399 C90.527,138.011 91.793,136.116 91.406,134.167 C91.018,132.217 89.123,130.951 87.173,131.339 C85.224,131.726 83.957,133.621 84.345,135.571 C84.733,137.521 86.628,138.787 88.578,138.399" id="Fill-75" fill="#22AD85"></path>
        <path d="M84.322,118.699 C83.935,120.649 85.201,122.543 87.15,122.931 C89.1,123.319 90.995,122.053 91.383,120.103 C91.771,118.154 90.504,116.259 88.555,115.871 C86.605,115.483 84.71,116.749 84.322,118.699" id="Fill-76" fill="#22AD85"></path>
        <path d="M91.751,108.095 C93.404,109.199 95.639,108.755 96.743,107.102 C97.848,105.449 97.403,103.214 95.75,102.109 C94.097,101.005 91.862,101.45 90.758,103.102 C89.654,104.755 90.098,106.99 91.751,108.095" id="Fill-77" fill="#22AD85"></path>
        <path d="M101.679,96.148 C102.783,97.801 105.019,98.246 106.672,97.141 C108.324,96.037 108.769,93.802 107.665,92.149 C106.56,90.496 104.325,90.051 102.672,91.156 C101.019,92.26 100.575,94.495 101.679,96.148" id="Fill-78" fill="#22AD85"></path>
        <path d="M119.656,91.738 C121.605,91.351 122.871,89.456 122.484,87.506 C122.096,85.556 120.201,84.29 118.251,84.678 C116.302,85.066 115.035,86.961 115.423,88.91 C115.811,90.86 117.706,92.126 119.656,91.738" id="Fill-79" fill="#22AD85"></path>
        <path d="M137.951,88.888 C138.339,86.938 137.073,85.043 135.123,84.655 C133.174,84.267 131.279,85.534 130.891,87.483 C130.503,89.433 131.769,91.328 133.719,91.715 C135.669,92.103 137.563,90.837 137.951,88.888" id="Fill-80" fill="#22AD85"></path>
        <path d="M167.144,66.352 C171,68.929 176.216,67.891 178.793,64.035 C181.37,60.178 180.332,54.963 176.476,52.386 C172.619,49.809 167.404,50.846 164.827,54.703 C162.25,58.559 163.287,63.775 167.144,66.352" id="Fill-81" fill="#22AD85"></path>
        <path d="M187.307,86.434 C189.884,90.291 195.1,91.328 198.956,88.751 C202.813,86.174 203.85,80.959 201.273,77.102 C198.697,73.246 193.481,72.208 189.624,74.785 C185.768,77.362 184.73,82.578 187.307,86.434" id="Fill-82" fill="#22AD85"></path>
        <path d="M204.849,102.829 C200.3,103.734 197.346,108.155 198.251,112.704 C199.156,117.254 203.577,120.208 208.126,119.303 C212.676,118.398 215.63,113.977 214.725,109.427 C213.82,104.878 209.399,101.924 204.849,102.829" id="Fill-83" fill="#22AD85"></path>
        <path d="M208.184,134.564 C203.634,133.659 199.213,136.613 198.308,141.163 C197.403,145.712 200.357,150.133 204.907,151.038 C209.456,151.943 213.877,148.989 214.782,144.439 C215.687,139.89 212.733,135.469 208.184,134.564" id="Fill-84" fill="#22AD85"></path>
        <path d="M199.119,165.159 C195.263,162.582 190.047,163.62 187.47,167.476 C184.894,171.333 185.931,176.549 189.788,179.125 C193.644,181.702 198.86,180.665 201.437,176.808 C204.013,172.952 202.976,167.736 199.119,165.159" id="Fill-85" fill="#22AD85"></path>
        <path d="M167.388,187.64 C163.531,190.217 162.494,195.432 165.071,199.289 C167.648,203.146 172.863,204.183 176.72,201.606 C180.576,199.029 181.614,193.814 179.037,189.957 C176.46,186.101 171.245,185.063 167.388,187.64" id="Fill-86" fill="#22AD85"></path>
        <path d="M141.118,198.583 C136.569,199.488 133.614,203.91 134.519,208.459 C135.424,213.008 139.846,215.962 144.395,215.058 C148.944,214.153 151.898,209.731 150.993,205.182 C150.088,200.633 145.667,197.679 141.118,198.583" id="Fill-87" fill="#22AD85"></path>
        <path d="M112.66,198.641 C108.11,197.736 103.689,200.69 102.784,205.239 C101.879,209.789 104.833,214.21 109.383,215.115 C113.932,216.02 118.353,213.065 119.258,208.516 C120.163,203.967 117.209,199.546 112.66,198.641" id="Fill-88" fill="#22AD85"></path>
        <path d="M86.346,187.803 C82.489,185.226 77.274,186.264 74.697,190.12 C72.12,193.977 73.157,199.192 77.014,201.769 C80.871,204.346 86.086,203.309 88.663,199.452 C91.24,195.595 90.202,190.38 86.346,187.803" id="Fill-89" fill="#22AD85"></path>
        <path d="M66.182,167.721 C63.605,163.864 58.39,162.827 54.533,165.404 C50.677,167.98 49.639,173.196 52.216,177.052 C54.793,180.909 60.008,181.946 63.865,179.37 C67.722,176.793 68.759,171.577 66.182,167.721" id="Fill-90" fill="#22AD85"></path>
        <path d="M48.64,151.326 C53.189,150.421 56.144,146 55.239,141.451 C54.334,136.901 49.912,133.947 45.363,134.852 C40.814,135.757 37.86,140.178 38.765,144.727 C39.669,149.277 44.091,152.231 48.64,151.326" id="Fill-91" fill="#22AD85"></path>
        <path d="M45.306,119.591 C49.855,120.496 54.276,117.542 55.181,112.992 C56.086,108.443 53.132,104.022 48.583,103.117 C44.034,102.212 39.612,105.166 38.707,109.715 C37.802,114.265 40.757,118.686 45.306,119.591" id="Fill-92" fill="#22AD85"></path>
        <path d="M54.37,88.996 C58.227,91.573 63.442,90.535 66.019,86.678 C68.596,82.822 67.559,77.606 63.702,75.03 C59.845,72.453 54.63,73.49 52.053,77.347 C49.476,81.203 50.513,86.419 54.37,88.996" id="Fill-93" fill="#22AD85"></path>
        <path d="M86.102,66.515 C89.958,63.938 90.996,58.723 88.419,54.866 C85.842,51.009 80.626,49.972 76.77,52.549 C72.913,55.126 71.876,60.341 74.453,64.198 C77.03,68.054 82.245,69.092 86.102,66.515" id="Fill-94" fill="#22AD85"></path>
        <path d="M112.372,55.572 C116.921,54.667 119.875,50.245 118.97,45.696 C118.065,41.147 113.644,38.193 109.095,39.097 C104.546,40.002 101.591,44.424 102.496,48.973 C103.401,53.522 107.822,56.476 112.372,55.572" id="Fill-95" fill="#22AD85"></path>
        <path d="M140.83,55.514 C145.379,56.419 149.8,53.465 150.705,48.916 C151.61,44.366 148.656,39.945 144.107,39.04 C139.558,38.135 135.136,41.09 134.231,45.639 C133.326,50.188 136.281,54.609 140.83,55.514" id="Fill-96" fill="#22AD85"></path>
        <path d="M287.611,99.649 C275.941,99.649 269.432,104.362 269.432,127.144 C269.432,151.385 275.604,155.536 287.387,155.536 C298.836,155.536 305.568,151.832 305.568,127.257 C305.568,103.8 300.63,99.649 287.611,99.649 Z M287.052,168.665 C264.382,168.665 253.498,160.137 253.498,127.144 C253.498,93.59 268.197,86.52 288.061,86.52 C310.619,86.52 321.615,92.466 321.615,127.032 C321.615,159.913 310.619,168.665 287.052,168.665 L287.052,168.665 Z" id="Fill-97" fill="#132F35"></path>
        <path d="M355.743,155.986 C367.301,155.986 369.77,151.944 369.77,138.254 C369.77,126.695 367.863,122.656 358.886,122.656 C355.63,122.656 351.479,123.103 348.898,124.563 C348.336,124.788 347.774,125.237 347.549,125.909 C347.327,126.47 347.327,127.257 347.327,128.041 L347.327,154.75 C349.235,155.424 352.712,155.986 355.743,155.986 Z M343.847,194.591 L335.207,194.591 C333.297,194.591 332.289,194.029 332.289,191.223 L332.289,114.687 C332.289,111.769 333.297,110.76 335.879,110.76 L343.061,110.76 C345.755,110.76 346.878,111.319 346.99,113.229 L347.103,114.8 C350.693,111.095 356.979,109.637 364.049,109.637 C377.402,109.637 384.921,115.92 384.921,138.366 C384.921,162.719 376.056,168.218 357.538,168.218 C354.173,168.218 349.459,167.657 347.327,166.646 L347.327,191.223 C347.327,193.804 346.204,194.591 343.847,194.591 L343.847,194.591 Z" id="Fill-98" fill="#132F35"></path>
        <path d="M430.27,132.754 C430.382,132.307 430.382,131.521 430.382,130.847 C430.382,123.889 428.925,120.299 420.506,120.299 C411.979,120.299 409.397,124.338 409.173,132.754 L430.27,132.754 Z M421.855,155.874 C428.026,155.874 433.526,154.975 437.003,153.854 C437.677,153.517 439.022,153.292 439.921,153.292 C441.154,153.292 441.829,153.966 442.166,155.087 C442.84,157.219 443.736,160.699 443.736,162.045 C443.736,163.505 443.177,164.289 441.829,164.963 C436.891,167.544 427.127,168.665 420.506,168.665 C399.971,168.665 393.685,159.463 393.685,139.265 C393.685,117.718 402.215,109.3 420.731,109.3 C442.39,109.3 444.635,121.42 444.635,139.265 C444.635,140.947 444.298,142.405 443.401,143.079 C442.84,143.529 441.941,143.753 440.708,143.753 L408.948,143.753 C409.173,153.854 413.437,155.874 421.855,155.874 L421.855,155.874 Z" id="Fill-99" fill="#132F35"></path>
        <path d="M467.987,167.32 L458.673,167.32 C456.763,167.32 455.867,166.196 455.867,164.177 L455.867,114.35 C455.867,112.106 456.875,110.76 459.232,110.76 L467.313,110.76 C469.67,110.76 470.231,111.432 470.569,113.339 L470.793,115.024 C474.383,111.432 481.79,109.525 488.747,109.525 C499.41,109.525 503.561,112.106 505.244,116.594 C506.367,119.513 506.48,123.44 506.48,127.594 L506.48,164.177 C506.48,166.084 505.693,167.32 503.561,167.32 L494.247,167.32 C492.34,167.32 491.441,166.084 491.441,164.177 L491.441,131.296 C491.441,129.389 491.329,127.144 490.879,125.796 C490.096,123.44 487.961,122.544 483.472,122.544 C478.872,122.544 475.619,123.44 473.934,124.114 C473.262,124.338 472.251,124.788 471.577,125.684 C471.24,126.246 470.906,126.92 470.906,128.939 L470.906,164.177 C470.906,166.084 469.894,167.32 467.987,167.32" id="Fill-100" fill="#132F35"></path>
        <path d="M554.632,99.649 C542.961,99.649 536.453,104.362 536.453,127.144 C536.453,151.385 542.624,155.536 554.407,155.536 C565.856,155.536 572.589,151.832 572.589,127.257 C572.589,103.8 567.651,99.649 554.632,99.649 Z M554.073,168.665 C531.403,168.665 520.518,160.137 520.518,127.144 C520.518,93.59 535.217,86.52 555.081,86.52 C577.639,86.52 588.636,92.466 588.636,127.032 C588.636,159.913 577.639,168.665 554.073,168.665 L554.073,168.665 Z" id="Fill-101" fill="#132F35"></path>
        <path d="M624.224,142.742 C619.511,142.742 616.143,143.416 614.236,144.762 C613,145.661 612.104,147.118 612.104,149.7 C612.104,154.076 614.123,156.657 621.193,156.657 C625.345,156.657 628.263,155.874 630.058,154.638 C630.62,154.301 631.406,153.629 631.631,152.955 C631.965,152.056 632.078,150.823 632.078,149.7 L632.078,143.079 C629.833,142.854 626.581,142.742 624.224,142.742 Z M617.266,168.331 C601.778,168.331 597.852,159.576 597.852,149.924 C597.852,143.304 599.871,139.04 604.36,136.009 C607.952,133.653 614.573,132.529 622.204,132.529 C625.457,132.529 629.162,132.641 632.078,132.979 L632.078,130.397 C632.078,128.939 631.965,127.144 631.406,125.796 C630.62,123.777 628.375,122.544 621.867,122.544 C617.601,122.544 613.561,122.881 609.859,123.44 C608.623,123.664 606.604,124.001 605.817,124.001 C604.472,124.001 603.573,123.103 603.236,121.757 C602.789,120.075 602.452,116.257 602.452,114.8 C602.452,112.892 603.348,111.994 604.921,111.544 C610.98,109.749 618.836,109.3 623.887,109.3 C634.659,109.3 640.159,110.76 643.077,113.788 C646.108,116.819 646.891,121.083 646.891,127.816 L646.891,163.28 C646.891,166.196 645.658,167.32 643.189,167.32 L636.569,167.32 C633.875,167.32 632.976,166.758 632.752,164.851 L632.527,162.831 C628.488,166.758 623.1,168.331 617.266,168.331 L617.266,168.331 Z" id="Fill-102" fill="#132F35"></path>
        <path d="M673.721,167.32 L664.407,167.32 C662.612,167.32 661.601,166.421 661.601,164.177 L661.601,86.857 C661.601,84.835 662.275,83.602 664.407,83.602 L673.946,83.602 C676.078,83.602 676.64,84.835 676.64,86.745 L676.64,129.613 L681.128,129.613 C683.934,129.613 685.058,128.939 686.179,127.257 L695.718,113.005 C696.504,111.769 697.737,110.76 699.644,110.76 L709.071,110.76 C710.869,110.76 711.54,111.656 711.54,113.005 C711.54,113.901 710.869,115.024 710.419,115.698 C703.012,126.807 699.198,131.633 696.504,135.223 C699.31,139.377 702.563,144.427 713.338,161.82 C714.121,162.943 714.908,164.177 714.908,165.188 C714.908,166.533 713.675,167.32 712.214,167.32 L701.889,167.32 C699.869,167.32 698.748,166.196 697.962,164.963 L685.168,144.537 C684.047,142.742 682.811,142.517 680.679,142.517 L676.64,142.517 L676.64,164.177 C676.64,166.308 675.519,167.32 673.721,167.32" id="Fill-103" fill="#132F35"></path>
        <path d="M736.128,167.32 L726.814,167.32 C725.017,167.32 724.008,166.421 724.008,164.177 L724.008,86.408 C724.008,84.388 724.682,83.264 726.927,83.264 L736.353,83.264 C738.485,83.264 739.047,84.388 739.047,86.408 L739.047,164.177 C739.047,166.308 737.923,167.32 736.128,167.32" id="Fill-104" fill="#132F35"></path>
        <path d="M776.643,142.742 C771.93,142.742 768.565,143.416 766.655,144.762 C765.422,145.661 764.523,147.118 764.523,149.7 C764.523,154.076 766.543,156.657 773.613,156.657 C777.767,156.657 780.685,155.874 782.48,154.638 C783.042,154.301 783.826,153.629 784.05,152.955 C784.387,152.056 784.5,150.823 784.5,149.7 L784.5,143.079 C782.255,142.854 779,142.742 776.643,142.742 Z M769.686,168.331 C754.201,168.331 750.271,159.576 750.271,149.924 C750.271,143.304 752.291,139.04 756.782,136.009 C760.372,133.653 766.992,132.529 774.624,132.529 C777.879,132.529 781.581,132.641 784.5,132.979 L784.5,130.397 C784.5,128.939 784.387,127.144 783.826,125.796 C783.042,123.777 780.795,122.544 774.287,122.544 C770.023,122.544 765.984,122.881 762.279,123.44 C761.046,123.664 759.026,124.001 758.24,124.001 C756.891,124.001 755.995,123.103 755.658,121.757 C755.209,120.075 754.872,116.257 754.872,114.8 C754.872,112.892 755.771,111.994 757.341,111.544 C763.402,109.749 771.256,109.3 776.306,109.3 C787.081,109.3 792.581,110.76 795.496,113.788 C798.527,116.819 799.314,121.083 799.314,127.816 L799.314,163.28 C799.314,166.196 798.078,167.32 795.609,167.32 L788.988,167.32 C786.295,167.32 785.399,166.758 785.174,164.851 L784.949,162.831 C780.907,166.758 775.523,168.331 769.686,168.331 L769.686,168.331 Z" id="Fill-105" fill="#132F35"></path>
        <path d="M825.582,167.32 L816.268,167.32 C814.361,167.32 813.462,166.196 813.462,164.177 L813.462,114.35 C813.462,112.106 814.473,110.76 816.829,110.76 L824.911,110.76 C827.267,110.76 827.826,111.432 828.163,113.339 L828.388,115.024 C831.98,111.432 839.385,109.525 846.345,109.525 C857.005,109.525 861.156,112.106 862.841,116.594 C863.962,119.513 864.075,123.44 864.075,127.594 L864.075,164.177 C864.075,166.084 863.291,167.32 861.156,167.32 L851.842,167.32 C849.935,167.32 849.036,166.084 849.036,164.177 L849.036,131.296 C849.036,129.389 848.926,127.144 848.477,125.796 C847.69,123.44 845.559,122.544 841.07,122.544 C836.469,122.544 833.214,123.44 831.531,124.114 C830.857,124.338 829.846,124.788 829.174,125.684 C828.837,126.246 828.5,126.92 828.5,128.939 L828.5,164.177 C828.5,166.084 827.489,167.32 825.582,167.32" id="Fill-106" fill="#132F35"></path>
        <path d="M913.465,123.552 C911.555,122.656 907.966,122.319 905.047,122.319 C893.713,122.319 890.907,126.358 890.907,139.936 C890.907,151.497 893.938,155.649 902.241,155.649 C905.497,155.649 909.199,155.199 911.892,153.517 C912.454,153.067 912.904,152.618 913.128,152.056 C913.465,151.385 913.465,150.598 913.465,149.812 L913.465,123.552 Z M924.911,167.32 L918.066,167.32 C915.485,167.32 914.586,166.983 914.361,164.963 L914.137,163.28 C910.322,167.32 904.485,168.553 897.078,168.553 C883.613,168.553 875.756,161.036 875.756,140.161 C875.756,115.808 884.849,109.412 903.926,109.412 C907.067,109.412 911.443,109.862 913.465,110.648 L913.465,86.632 C913.465,84.051 914.698,83.264 916.943,83.264 L925.585,83.264 C927.38,83.264 928.501,83.826 928.501,86.632 L928.501,163.618 C928.501,166.533 927.493,167.32 924.911,167.32 L924.911,167.32 Z" id="Fill-107" fill="#132F35"></path>
    </g>
</svg>