<?xml version="1.0" encoding="UTF-8"?>
<svg width="21px" height="24px" viewBox="0 0 21 24" version="1.1" xmlns="http://www.w3.org/2000/svg" xmlns:xlink="http://www.w3.org/1999/xlink">
    <title>Group 20</title>
    <g id="Change-language" stroke="none" stroke-width="1" fill="none" fill-rule="evenodd">
        <g id="mobile" transform="translate(-311.000000, -185.000000)">
            <g id="Group" transform="translate(311.000000, 182.000000)">
                <g id="Group-20" transform="translate(0.000000, 3.000000)">
                    <polygon id="Fill-1" fill="#000000" points="10.3325596 3.08080202 2.33170184 0.25699005 2.33170184 17.6706974 10.3325596 15.0821745"></polygon>
                    <polygon id="Fill-2" fill="#FFFFFF" points="10.1405061 3.07205267 18.4476771 0.248326471 18.4476771 17.6620338 10.1405061 15.0735109"></polygon>
                    <polygon id="Fill-3" fill="#FFFFFF" points="0.256990908 20.7190787 10.1405044 17.4247744 10.1405044 3.07016812 0.256990908 6.36447247"></polygon>
                    <polygon id="Fill-4" fill="#000000" points="14.6441071 20.9359238 16.0448619 23.2404358 16.7834963 21.099674"></polygon>
                    <g id="Group-19">
                        <path d="M3.61760165,8.01809916 C3.56510551,7.96654658 3.68596672,8.43935495 3.85417739,8.60945274 C4.15242752,8.91036198 4.38540058,8.94913364 4.50943558,8.95410877 C4.7839252,8.96508835 5.12266255,8.8857437 5.32381197,8.80142391 C5.51844227,8.7183908 5.85949563,8.54426145 5.98859153,8.29027277 C6.01595471,8.2359753 6.09066735,8.14479328 6.04374678,7.91954023 C6.00814891,7.74626866 5.89783839,7.68562361 5.76333848,7.69523074 C5.62883857,7.70432321 5.22165037,7.81291817 5.02470407,7.87347744 C4.82767198,7.93326471 4.42185624,8.05678504 4.24498199,8.09512781 C4.06853663,8.1333848 3.67953337,8.07737176 3.61760165,8.01809916" id="Fill-5" fill="#000000"></path>
                        <path d="M8.60439269,13.6701827 C8.52650626,13.641876 6.91508063,12.9743515 6.6866538,12.8649846 C6.49974352,12.7750892 6.04143163,12.5813167 5.82578573,12.4933085 C6.43317979,11.5567842 6.81660748,10.8500592 6.86764539,10.7424078 C6.96208698,10.5454615 7.60499314,9.28744124 7.62000429,9.2099837 C7.63458655,9.13149683 7.65285727,8.84156716 7.63870389,8.77268742 C7.62455052,8.70243524 7.38883256,8.83744982 7.06879482,8.945959 C6.74824241,9.05403929 6.13904701,9.4502479 5.90375793,9.49991336 C5.66761108,9.54914994 4.91293618,9.83504804 4.5267636,9.96320038 C4.14059101,10.0913527 3.41010551,10.3142898 3.10962515,10.3954358 C2.8087159,10.4765817 2.54606365,10.4830151 2.3777672,10.534053 C2.3777672,10.534053 2.40015526,10.769771 2.4448456,10.8404521 C2.48902127,10.9111331 2.64822525,11.0844047 2.83333419,11.1327835 C3.01844313,11.1815054 3.32484217,11.161948 3.46440299,11.1300386 C3.60387802,11.0976145 3.84551467,10.979584 3.87793875,10.9280314 C3.91070595,10.875621 3.86104049,10.7141868 3.91619575,10.6653791 C3.97186567,10.6170861 4.7073263,10.445187 4.98498971,10.3612961 C5.26265311,10.275947 6.32552839,9.90984646 6.46963544,9.92854606 C6.42400154,10.0799442 5.56905215,11.7733736 5.29370475,12.2786061 C5.01827157,12.7837528 3.4183402,15.0061752 3.07771573,15.3978375 C2.81918082,15.695573 2.19265826,16.4574533 1.9756399,16.6293524 C2.03036627,16.6444493 2.4183402,16.6111674 2.48902127,16.5674207 C2.92949134,16.2961048 3.66315063,15.3828264 3.89938326,15.1046483 C4.60156202,14.2811794 5.21847744,13.416194 5.70766941,12.6738712 L5.70818408,12.6738712 C5.80348344,12.7135864 6.57402728,13.3413956 6.77509092,13.4805275 C6.97615457,13.6195737 7.76960113,14.062274 7.94150026,14.1356999 C8.11339938,14.2100695 8.77406159,14.5146672 8.80185366,14.411562 C8.82964574,14.3075991 8.6823649,13.6997761 8.60439269,13.6701827" id="Fill-7" fill="#000000"></path>
                        <path d="M4.88076857,22.0621033 C5.03516898,22.1564591 5.18099159,22.2336593 5.34396981,22.3108595 C5.66992623,22.4738377 6.03877166,22.6453937 6.39046149,22.7740607 C6.87081832,22.9541945 7.35117516,23.1000172 7.831532,23.2115286 C8.09744382,23.2715732 8.38908904,23.32304 8.67215646,23.365929 C8.69788986,23.365929 9.46131412,23.4602848 9.61571453,23.4602848 L10.3877166,23.4602848 C10.6879396,23.4345514 10.971007,23.4173958 11.2712301,23.3745068 C11.5114085,23.3401956 11.7773203,23.2973066 12.0346543,23.237262 C12.2233659,23.194373 12.4206553,23.151484 12.609367,23.0914394 C12.7895008,23.0399726 12.995368,22.9713501 13.1926574,22.9027277 C13.3213244,22.8598387 13.4585692,22.7997941 13.595814,22.7483273 C13.7073254,22.6968605 13.8445703,22.6368159 13.9732373,22.5853491 C14.1276377,22.5167267 14.3077715,22.4223709 14.4793275,22.3365929 C14.6165723,22.2679705 14.7709727,22.1821925 14.9167953,22.0964145 C15.0283067,22.0363699 15.2856408,21.8390805 15.4228856,21.8390805 C15.577286,21.8390805 15.6802196,21.9763253 15.6802196,22.0964145 C15.6802196,22.3451707 15.3456854,22.4223709 15.191285,22.5338823 C15.0283067,22.6453937 14.8310173,22.7311717 14.6594613,22.8255275 C14.3163493,23.0056613 13.9646595,23.1600618 13.6301252,23.2887288 C13.1926574,23.451707 12.7123006,23.6061074 12.2834105,23.709041 C12.1204323,23.7433522 11.9574541,23.7862412 11.7944759,23.8119746 C11.7086979,23.8291302 10.8166066,23.966375 10.5678504,23.966375 L9.43558072,23.966375 C9.13535769,23.9406416 8.81797907,23.9063304 8.51775605,23.8634414 C8.25184423,23.8205524 7.96877681,23.7690856 7.70286499,23.709041 C7.49699777,23.666152 7.27397495,23.6061074 7.07668554,23.5460628 C6.73357351,23.451707 6.39903929,23.3316178 6.07308286,23.2029508 C5.48121462,22.9799279 4.86361297,22.6882827 4.28032253,22.3022817 C4.17738892,22.2336593 4.16881112,22.1650369 4.16881112,22.0878367 C4.16881112,21.9591697 4.26316692,21.8390805 4.41756734,21.8390805 C4.55481215,21.8390805 4.82930177,22.0363699 4.88076857,22.0621033" id="Fill-9" fill="#000000"></path>
                        <path d="M10.3962944,3.03654143 L10.3962944,17.4472465 C10.3877166,17.4901355 10.370561,17.5330245 10.3362498,17.5759135 C10.3190942,17.6016469 10.284783,17.6359581 10.2590496,17.6445359 C10.0446046,17.7303139 0.386001029,20.9727226 0.25733402,20.9727226 C0.154400412,20.9727226 0.0600446046,20.9041002 0.00857780065,20.7925888 C0.00857780065,20.784011 0,20.7754332 0,20.7582776 L0,6.33899468 C0.0171556013,6.29610568 0.025733402,6.23606107 0.0600446046,6.20174987 C0.12866701,6.10739406 0.248756219,6.09023846 0.325956425,6.06450506 C0.471779036,6.01303826 9.98455996,2.82209641 10.1218048,2.82209641 C10.2075828,2.82209641 10.3962944,2.88214102 10.3962944,3.03654143 L10.3962944,3.03654143 Z M9.87304855,17.2328015 L0.52324584,20.3465431 L0.52324584,6.5534397 L9.87304855,3.43969806 L9.87304855,17.2328015 Z" id="Fill-11" fill="#000000"></path>
                        <path d="M18.7081832,0.274489621 L18.7081832,17.6273803 C18.6996054,17.8246698 18.5623606,17.9104478 18.4336936,17.9104478 C18.3221822,17.9104478 17.5158689,17.6359581 17.3786241,17.5930691 C16.2978212,17.2585349 15.2084406,16.9240007 14.1362155,16.5894665 C13.8960371,16.5122663 13.6472808,16.435066 13.4156802,16.3578658 C13.209813,16.2978212 12.9867902,16.2291988 12.780923,16.1605764 C11.8630983,15.877509 10.928118,15.5944416 10.0102934,15.2856408 C9.97598216,15.277063 9.89020415,15.1569738 9.89020415,15.1312403 L9.89020415,3.01080803 C9.90735975,2.96791903 9.92451535,2.91645222 9.96740436,2.88214102 C10.0360268,2.80494081 12.9782124,1.82707154 14.1362155,1.44107051 C14.4450163,1.3295591 18.3136044,0 18.4336936,0 C18.588094,0 18.7081832,0.111511408 18.7081832,0.274489621 L18.7081832,0.274489621 Z M18.1849374,17.3014239 L10.4048722,14.8824841 L10.4048722,3.25956425 L18.1849374,0.617601647 L18.1849374,17.3014239 Z" id="Fill-13" fill="#000000"></path>
                        <polygon id="Fill-15" fill="#000000" points="20.6828787 20.9359238 10.2890719 17.6230914 10.3325613 3.2012352 20.6828787 6.49553954"></polygon>
                        <path d="M14.8308458,7.31849288 L16.1699262,7.72413707 L18.6095385,16.5165543 L17.2340882,16.0992443 L16.7399211,14.2942177 L13.8974095,13.4326634 L13.2861554,14.90307 L11.9102762,14.4856742 L14.8308458,7.31849288 Z M15.4430434,9.64616487 L14.4228856,12.1119394 L16.2984217,12.6804761 L15.4430434,9.64616487 Z" id="Fill-17" fill="#FFFFFF"></path>
                    </g>
                </g>
            </g>
        </g>
    </g>
</svg>