<?xml version="1.0" encoding="UTF-8"?>
<svg width="90px" height="90px" viewBox="0 0 90 90" version="1.1" xmlns="http://www.w3.org/2000/svg" xmlns:xlink="http://www.w3.org/1999/xlink">
    <g id="Page-1" stroke="none" stroke-width="1" fill="none" fill-rule="evenodd">
        <g id="rotate-device" fill="#6C757D" fill-rule="nonzero">
            <g id="Group">
                <path d="M80.615,63 C80.615,61.482 81.835,60.261 83.352,60.261 C84.869,60.261 86.089,61.482 86.089,63 L86.089,69.261 C86.089,70.779 84.869,72 83.352,72 C81.835,72 80.615,70.779 80.615,69.261 L80.615,63 Z M83.352,69.652 C83.571,69.652 83.743,69.48 83.743,69.261 L83.743,63 C83.743,62.781 83.571,62.609 83.352,62.609 C83.133,62.609 82.961,62.781 82.961,63 L82.961,69.261 C82.961,69.48 83.133,69.652 83.352,69.652 Z" id="Shape"></path>
                <path d="M3.519,66.13 C3.519,63.939 5.302,62.154 7.492,62.154 C9.682,62.154 11.465,63.938 11.465,66.13 C11.465,68.321 9.682,70.106 7.492,70.106 C5.302,70.106 3.519,68.322 3.519,66.13 Z M7.492,67.758 C8.384,67.758 9.119,67.038 9.119,66.13 C9.119,65.222 8.384,64.502 7.492,64.502 C6.585,64.502 5.865,65.222 5.865,66.13 C5.865,67.023 6.585,67.758 7.492,67.758 Z" id="Shape"></path>
                <path d="M13.749,47.739 L77.878,47.739 C78.191,47.739 78.488,47.864 78.707,48.083 C78.926,48.302 79.051,48.6 79.051,48.913 L79.051,69.261 L79.051,83.348 C79.051,83.661 78.926,83.958 78.707,84.178 C78.488,84.398 78.191,84.522 77.878,84.522 L13.749,84.522 C13.436,84.522 13.139,84.397 12.92,84.178 C12.701,83.959 12.576,83.661 12.576,83.348 L12.576,66.13 L12.576,48.913 C12.576,48.6 12.701,48.303 12.92,48.083 C13.139,47.864 13.436,47.739 13.749,47.739 Z M76.705,50.087 L14.922,50.087 L14.922,82.174 L76.705,82.174 L76.705,50.087 Z" id="Shape"></path>
                <path d="M26.981,9.391 L20.724,9.391 C19.207,9.391 17.987,8.17 17.987,6.652 C17.987,5.134 19.207,3.913 20.724,3.913 L26.981,3.913 C28.498,3.913 29.718,5.134 29.718,6.652 C29.718,8.17 28.498,9.391 26.981,9.391 Z M20.725,7.043 L26.982,7.043 C27.201,7.043 27.373,6.871 27.373,6.652 C27.373,6.433 27.201,6.261 26.982,6.261 L20.725,6.261 C20.506,6.261 20.334,6.433 20.334,6.652 C20.334,6.871 20.506,7.043 20.725,7.043 Z" id="Shape"></path>
                <path d="M39.885,13.304 L7.821,13.304 L7.821,42.261 L39.886,42.261 L39.886,13.304 L39.885,13.304 Z M4.192,89.437 C1.736,88.403 0,85.962 0,83.129 L0,6.871 C0,3.083 3.081,0 6.867,0 L40.84,0 C44.625,0 47.707,3.083 47.707,6.871 L47.707,42.261 L83.135,42.261 C86.92,42.261 90.002,45.344 90.002,49.132 L90.002,83.129 C90,86.917 86.919,90 83.133,90 L40.839,90 L6.929,90 C6.694,90 6.46,89.984 6.225,89.969 C6.022,89.938 5.834,89.922 5.646,89.875 C5.615,89.875 5.583,89.859 5.552,89.859 C5.317,89.812 5.098,89.765 4.895,89.687 C4.645,89.609 4.426,89.53 4.192,89.437 Z M2.346,44.03 C3.206,43.247 4.286,42.668 5.474,42.418 L5.474,12.13 C5.474,11.817 5.599,11.52 5.818,11.3 C6.037,11.081 6.334,10.956 6.647,10.956 L26.981,10.956 L41.058,10.956 C41.371,10.956 41.668,11.081 41.887,11.3 C42.106,11.519 42.231,11.817 42.231,12.13 L42.231,42.26 L45.359,42.26 L45.359,6.87 C45.359,4.381 43.326,2.347 40.839,2.347 L26.981,2.347 L6.867,2.347 C4.38,2.347 2.347,4.382 2.347,6.87 L2.347,44.03 L2.346,44.03 Z M6.929,44.609 C4.442,44.609 2.409,46.644 2.409,49.132 L2.409,66.13 L2.409,83.128 C2.409,84.521 3.05,85.789 4.051,86.618 C4.176,86.712 4.286,86.79 4.411,86.884 C4.536,86.978 4.646,87.056 4.786,87.103 C5.036,87.244 5.302,87.353 5.584,87.447 C5.803,87.51 6.006,87.557 6.241,87.588 C6.288,87.604 6.35,87.619 6.413,87.619 C6.46,87.619 6.507,87.635 6.554,87.635 C6.679,87.651 6.804,87.651 6.929,87.651 L40.839,87.651 L83.133,87.651 C85.62,87.651 87.653,85.616 87.653,83.128 L87.653,69.261 L87.653,49.132 C87.653,46.643 85.62,44.609 83.133,44.609 L6.929,44.609 Z" id="Shape"></path>
                <path d="M75.751,23.76 C76.205,24.214 76.205,24.965 75.751,25.419 L72.388,28.784 C72.279,28.894 72.153,28.972 72.013,29.034 C71.872,29.097 71.716,29.128 71.559,29.128 C71.403,29.128 71.246,29.097 71.105,29.034 C70.964,28.971 70.839,28.893 70.73,28.784 L67.367,25.419 C66.913,24.965 66.913,24.214 67.367,23.76 C67.836,23.306 68.571,23.306 69.025,23.76 L70.386,25.122 L70.386,23.823 C70.386,22.054 69.682,20.473 68.525,19.315 C67.368,18.157 65.772,17.437 64.02,17.437 L61.564,17.437 C60.923,17.437 60.391,16.92 60.391,16.263 C60.391,15.621 60.923,15.089 61.564,15.089 L64.02,15.089 C68.838,15.089 72.732,19.002 72.732,23.823 L72.732,25.122 L74.093,23.76 C74.546,23.306 75.297,23.306 75.751,23.76 Z" id="Path"></path>
            </g>
        </g>
    </g>
</svg>
