<svg id="Logo" xmlns="http://www.w3.org/2000/svg" viewBox="0 0 891.76 180"><defs><style>.cls-1{fill:#fff;}</style></defs><title>logo_open-oakland_white</title><path class="cls-1" d="M147.27,58.7a7.2,7.2,0,1,0,9.4-3.9A7.21,7.21,0,0,0,147.27,58.7Z" transform="translate(-36.87 -36.75)"/><circle class="cls-1" cx="139.97" cy="40.03" r="7.2"/><path class="cls-1" d="M194.92,106.35a7.2,7.2,0,1,0-9.41-3.89A7.19,7.19,0,0,0,194.92,106.35Z" transform="translate(-36.87 -36.75)"/><circle class="cls-1" cx="160.67" cy="90" r="7.2"/><path class="cls-1" d="M189.41,160.44a7.2,7.2,0,1,0-3.9-9.4A7.19,7.19,0,0,0,189.41,160.44Z" transform="translate(-36.87 -36.75)"/><circle class="cls-1" cx="139.97" cy="139.97" r="7.2"/><path class="cls-1" d="M160.57,189.29a7.2,7.2,0,1,0-3.9,9.4A7.2,7.2,0,0,0,160.57,189.29Z" transform="translate(-36.87 -36.75)"/><path class="cls-1" d="M126.87,190.22a7.2,7.2,0,1,0,7.2,7.2A7.2,7.2,0,0,0,126.87,190.22Z" transform="translate(-36.87 -36.75)"/><path class="cls-1" d="M106.48,194.8a7.2,7.2,0,1,0-9.41,3.89A7.2,7.2,0,0,0,106.48,194.8Z" transform="translate(-36.87 -36.75)"/><path class="cls-1" d="M82,181.81a7.2,7.2,0,1,0-10.18,0A7.2,7.2,0,0,0,82,181.81Z" transform="translate(-36.87 -36.75)"/><path class="cls-1" d="M54.93,156.55a7.2,7.2,0,1,0,3.89-9.41A7.19,7.19,0,0,0,54.93,156.55Z" transform="translate(-36.87 -36.75)"/><path class="cls-1" d="M49,126.75a7.2,7.2,0,1,0,7.2-7.2A7.2,7.2,0,0,0,49,126.75Z" transform="translate(-36.87 -36.75)"/><circle class="cls-1" cx="61.58" cy="99.7" r="7.2" transform="translate(-87.13 97.94) rotate(-75.67)"/><path class="cls-1" d="M71.81,81.87a7.2,7.2,0,1,0,0-10.19A7.2,7.2,0,0,0,71.81,81.87Z" transform="translate(-36.87 -36.75)"/><path class="cls-1" d="M93.18,64.21a7.2,7.2,0,1,0,3.89-9.41A7.2,7.2,0,0,0,93.18,64.21Z" transform="translate(-36.87 -36.75)"/><path class="cls-1" d="M126.87,63.27a7.2,7.2,0,1,0-7.2-7.2A7.2,7.2,0,0,0,126.87,63.27Z" transform="translate(-36.87 -36.75)"/><path class="cls-1" d="M158.1,51.36a4.2,4.2,0,1,0-2.27-5.49A4.2,4.2,0,0,0,158.1,51.36Z" transform="translate(-36.87 -36.75)"/><circle class="cls-1" cx="150.67" cy="29.33" r="4.2"/><path class="cls-1" d="M202.26,95.52A4.2,4.2,0,1,0,204.54,90,4.2,4.2,0,0,0,202.26,95.52Z" transform="translate(-36.87 -36.75)"/><path class="cls-1" d="M212.67,122.55a4.2,4.2,0,1,0,4.2,4.2A4.2,4.2,0,0,0,212.67,122.55Z" transform="translate(-36.87 -36.75)"/><circle class="cls-1" cx="206.14" cy="159.58" r="4.2" transform="translate(-91.4 126.29) rotate(-38.51)"/><circle class="cls-1" cx="150.67" cy="150.67" r="4.2"/><path class="cls-1" d="M158.1,202.14a4.2,4.2,0,1,0,5.49,2.27A4.19,4.19,0,0,0,158.1,202.14Z" transform="translate(-36.87 -36.75)"/><path class="cls-1" d="M126.87,208.35a4.2,4.2,0,1,0,4.2,4.2A4.2,4.2,0,0,0,126.87,208.35Z" transform="translate(-36.87 -36.75)"/><path class="cls-1" d="M95.65,202.14a4.2,4.2,0,1,0,2.27,5.48A4.2,4.2,0,0,0,95.65,202.14Z" transform="translate(-36.87 -36.75)"/><circle class="cls-1" cx="29.33" cy="150.67" r="4.2"/><path class="cls-1" d="M51.48,158a4.2,4.2,0,1,0-2.27,5.49A4.19,4.19,0,0,0,51.48,158Z" transform="translate(-36.87 -36.75)"/><circle class="cls-1" cx="4.2" cy="90" r="4.2"/><path class="cls-1" d="M46,97.79a4.2,4.2,0,1,0-2.28-5.48A4.19,4.19,0,0,0,46,97.79Z" transform="translate(-36.87 -36.75)"/><path class="cls-1" d="M69.17,69.05a4.2,4.2,0,1,0-5.94,0A4.2,4.2,0,0,0,69.17,69.05Z" transform="translate(-36.87 -36.75)"/><path class="cls-1" d="M95.65,51.36a4.2,4.2,0,1,0-5.49-2.27A4.2,4.2,0,0,0,95.65,51.36Z" transform="translate(-36.87 -36.75)"/><path class="cls-1" d="M126.87,45.15a4.2,4.2,0,1,0-4.2-4.2A4.2,4.2,0,0,0,126.87,45.15Z" transform="translate(-36.87 -36.75)"/><path class="cls-1" d="M148,75.86a6,6,0,1,0,3.25,7.84A6,6,0,0,0,148,75.86Z" transform="translate(-36.87 -36.75)"/><circle class="cls-1" cx="124.71" cy="55.3" r="6"/><path class="cls-1" d="M166.67,110.26a6,6,0,1,0,3.25-7.84A6,6,0,0,0,166.67,110.26Z" transform="translate(-36.87 -36.75)"/><path class="cls-1" d="M176,120.75a6,6,0,1,0,6,6A6,6,0,0,0,176,120.75Z" transform="translate(-36.87 -36.75)"/><path class="cls-1" d="M169.92,151.07a6,6,0,1,0-3.25-7.84A6,6,0,0,0,169.92,151.07Z" transform="translate(-36.87 -36.75)"/><path class="cls-1" d="M165.82,157.21a6,6,0,1,0,0,8.49A6,6,0,0,0,165.82,157.21Z" transform="translate(-36.87 -36.75)"/><circle class="cls-1" cx="145.66" cy="172.09" r="6" transform="translate(-105.95 204.06) rotate(-67.5)"/><path class="cls-1" d="M126.87,181.83a6,6,0,1,0-6-6A6,6,0,0,0,126.87,181.83Z" transform="translate(-36.87 -36.75)"/><path class="cls-1" d="M105.8,177.63a6,6,0,1,0-3.25-7.83A6,6,0,0,0,105.8,177.63Z" transform="translate(-36.87 -36.75)"/><path class="cls-1" d="M96.41,165.69a6,6,0,1,0-8.48,0A6,6,0,0,0,96.41,165.69Z" transform="translate(-36.87 -36.75)"/><path class="cls-1" d="M87.07,143.23a6,6,0,1,0-3.24,7.84A6,6,0,0,0,87.07,143.23Z" transform="translate(-36.87 -36.75)"/><path class="cls-1" d="M71.79,126.75a6,6,0,1,0,6-6A6,6,0,0,0,71.79,126.75Z" transform="translate(-36.87 -36.75)"/><path class="cls-1" d="M83.83,102.42a6,6,0,1,0,3.24,7.84A6,6,0,0,0,83.83,102.42Z" transform="translate(-36.87 -36.75)"/><circle class="cls-1" cx="55.3" cy="55.3" r="6"/><path class="cls-1" d="M105.8,75.86a6,6,0,1,0,7.83,3.25A6,6,0,0,0,105.8,75.86Z" transform="translate(-36.87 -36.75)"/><path class="cls-1" d="M126.87,71.67a6,6,0,1,0,6,6A6,6,0,0,0,126.87,71.67Z" transform="translate(-36.87 -36.75)"/><path class="cls-1" d="M163.69,71.62a6.6,6.6,0,1,0,1.82,9.15A6.6,6.6,0,0,0,163.69,71.62Z" transform="translate(-36.87 -36.75)"/><path class="cls-1" d="M172.83,88.09A6.6,6.6,0,1,0,182,89.91,6.59,6.59,0,0,0,172.83,88.09Z" transform="translate(-36.87 -36.75)"/><path class="cls-1" d="M178.94,116.38a6.6,6.6,0,1,0,5.19-7.76A6.6,6.6,0,0,0,178.94,116.38Z" transform="translate(-36.87 -36.75)"/><path class="cls-1" d="M191.89,139.67a6.6,6.6,0,1,0-7.76,5.18A6.6,6.6,0,0,0,191.89,139.67Z" transform="translate(-36.87 -36.75)"/><path class="cls-1" d="M172.85,165.38a6.6,6.6,0,1,0-1.82-9.15A6.59,6.59,0,0,0,172.85,165.38Z" transform="translate(-36.87 -36.75)"/><circle class="cls-1" cx="160.05" cy="176.37" r="6.6" transform="translate(-81.03 262.19) rotate(-78.75)"/><path class="cls-1" d="M139.82,191.76a6.6,6.6,0,1,0-7.76-5.18A6.59,6.59,0,0,0,139.82,191.76Z" transform="translate(-36.87 -36.75)"/><circle class="cls-1" cx="115.24" cy="185.29" r="6.6" transform="translate(-120.52 238.32) rotate(-82.41)"/><path class="cls-1" d="M90.06,181.87a6.6,6.6,0,1,0-1.82-9.15A6.59,6.59,0,0,0,90.06,181.87Z" transform="translate(-36.87 -36.75)"/><path class="cls-1" d="M80.92,165.41a6.6,6.6,0,1,0-9.16-1.82A6.6,6.6,0,0,0,80.92,165.41Z" transform="translate(-36.87 -36.75)"/><path class="cls-1" d="M74.8,137.12a6.6,6.6,0,1,0-5.18,7.76A6.6,6.6,0,0,0,74.8,137.12Z" transform="translate(-36.87 -36.75)"/><path class="cls-1" d="M61.86,113.83a6.6,6.6,0,1,0,7.75-5.19A6.59,6.59,0,0,0,61.86,113.83Z" transform="translate(-36.87 -36.75)"/><path class="cls-1" d="M80.9,88.11a6.6,6.6,0,1,0,1.82,9.15A6.6,6.6,0,0,0,80.9,88.11Z" transform="translate(-36.87 -36.75)"/><path class="cls-1" d="M97.37,82.61a6.6,6.6,0,1,0-9.16-1.82A6.6,6.6,0,0,0,97.37,82.61Z" transform="translate(-36.87 -36.75)"/><path class="cls-1" d="M113.93,61.74a6.6,6.6,0,1,0,7.76,5.18A6.59,6.59,0,0,0,113.93,61.74Z" transform="translate(-36.87 -36.75)"/><path class="cls-1" d="M139.79,61.73A6.6,6.6,0,1,0,145,69.49,6.6,6.6,0,0,0,139.79,61.73Z" transform="translate(-36.87 -36.75)"/><path class="cls-1" d="M145.86,91.75a3.6,3.6,0,1,0,5-1A3.6,3.6,0,0,0,145.86,91.75Z" transform="translate(-36.87 -36.75)"/><path class="cls-1" d="M157.8,101.68a3.6,3.6,0,1,0,5,1A3.6,3.6,0,0,0,157.8,101.68Z" transform="translate(-36.87 -36.75)"/><path class="cls-1" d="M162.21,119.66a3.6,3.6,0,1,0,2.83-4.23A3.61,3.61,0,0,0,162.21,119.66Z" transform="translate(-36.87 -36.75)"/><path class="cls-1" d="M169.3,135.13a3.6,3.6,0,1,0-4.24,2.82A3.61,3.61,0,0,0,169.3,135.13Z" transform="translate(-36.87 -36.75)"/><path class="cls-1" d="M157.87,151.72a3.6,3.6,0,1,0-1-5A3.6,3.6,0,0,0,157.87,151.72Z" transform="translate(-36.87 -36.75)"/><path class="cls-1" d="M151.94,157.68a3.6,3.6,0,1,0-1,5A3.6,3.6,0,0,0,151.94,157.68Z" transform="translate(-36.87 -36.75)"/><path class="cls-1" d="M135.37,169.15a3.6,3.6,0,1,0-4.24-2.83A3.61,3.61,0,0,0,135.37,169.15Z" transform="translate(-36.87 -36.75)"/><path class="cls-1" d="M118.49,169.17a3.6,3.6,0,1,0-2.82-4.23A3.61,3.61,0,0,0,118.49,169.17Z" transform="translate(-36.87 -36.75)"/><path class="cls-1" d="M102.9,162.73a3.6,3.6,0,1,0-1-5A3.59,3.59,0,0,0,102.9,162.73Z" transform="translate(-36.87 -36.75)"/><path class="cls-1" d="M95.94,151.81a3.59,3.59,0,1,0-5-1A3.6,3.6,0,0,0,95.94,151.81Z" transform="translate(-36.87 -36.75)"/><path class="cls-1" d="M88.71,138.07a3.6,3.6,0,1,0-4.24-2.83A3.59,3.59,0,0,0,88.71,138.07Z" transform="translate(-36.87 -36.75)"/><path class="cls-1" d="M84.45,118.37a3.6,3.6,0,1,0,4.23-2.83A3.6,3.6,0,0,0,84.45,118.37Z" transform="translate(-36.87 -36.75)"/><path class="cls-1" d="M91.88,107.76a3.6,3.6,0,1,0-1-5A3.59,3.59,0,0,0,91.88,107.76Z" transform="translate(-36.87 -36.75)"/><path class="cls-1" d="M101.81,95.82a3.6,3.6,0,1,0,1-5A3.59,3.59,0,0,0,101.81,95.82Z" transform="translate(-36.87 -36.75)"/><path class="cls-1" d="M119.78,91.41a3.6,3.6,0,1,0-4.23-2.83A3.6,3.6,0,0,0,119.78,91.41Z" transform="translate(-36.87 -36.75)"/><path class="cls-1" d="M138.08,88.56a3.6,3.6,0,1,0-4.23,2.83A3.59,3.59,0,0,0,138.08,88.56Z" transform="translate(-36.87 -36.75)"/><path class="cls-1" d="M167.27,66A8.4,8.4,0,1,0,165,54.37,8.39,8.39,0,0,0,167.27,66Z" transform="translate(-36.87 -36.75)"/><circle class="cls-1" cx="194.42" cy="81.44" r="8.4" transform="translate(-1.06 183.53) rotate(-63.93)"/><path class="cls-1" d="M205,102.5a8.4,8.4,0,1,0,9.87,6.6A8.39,8.39,0,0,0,205,102.5Z" transform="translate(-36.87 -36.75)"/><circle class="cls-1" cx="206.67" cy="142.47" r="8.4" transform="translate(-78.16 144.78) rotate(-43.53)"/><path class="cls-1" d="M199.25,164.83a8.4,8.4,0,1,0,2.32,11.65A8.39,8.39,0,0,0,199.25,164.83Z" transform="translate(-36.87 -36.75)"/><path class="cls-1" d="M167.52,187.31a8.4,8.4,0,1,0,11.65,2.32A8.39,8.39,0,0,0,167.52,187.31Z" transform="translate(-36.87 -36.75)"/><path class="cls-1" d="M141.25,198.25a8.4,8.4,0,1,0,9.87,6.6A8.4,8.4,0,0,0,141.25,198.25Z" transform="translate(-36.87 -36.75)"/><circle class="cls-1" cx="111.15" cy="206.55" r="8.4" transform="translate(-132.89 59.81) rotate(-33.75)"/><circle class="cls-1" cx="81.81" cy="194.46" r="8.4" transform="translate(-107.89 12.28) rotate(-23.6)"/><path class="cls-1" d="M66.31,167.39A8.4,8.4,0,1,0,64,179,8.4,8.4,0,0,0,66.31,167.39Z" transform="translate(-36.87 -36.75)"/><circle class="cls-1" cx="47.13" cy="142.76" r="8.4" transform="translate(-134.63 65.89) rotate(-56.25)"/><circle class="cls-1" cx="47.07" cy="111.02" r="8.4" transform="translate(-108.86 93.46) rotate(-76.18)"/><path class="cls-1" d="M54.5,88.67A8.4,8.4,0,1,0,52.18,77,8.4,8.4,0,0,0,54.5,88.67Z" transform="translate(-36.87 -36.75)"/><path class="cls-1" d="M86.23,66.18a8.4,8.4,0,1,0-11.65-2.31A8.39,8.39,0,0,0,86.23,66.18Z" transform="translate(-36.87 -36.75)"/><circle class="cls-1" cx="110.86" cy="47" r="8.4" transform="translate(-26.69 76.32) rotate(-56.25)"/><path class="cls-1" d="M141,55.18a8.4,8.4,0,1,0-6.6-9.87A8.39,8.39,0,0,0,141,55.18Z" transform="translate(-36.87 -36.75)"/><path class="cls-1" d="M287.18,168.34c-22.67,0-33.55-8.53-33.55-41.53,0-33.55,14.7-40.62,34.56-40.62,22.56,0,33.55,6,33.55,40.51C321.74,159.58,310.75,168.34,287.18,168.34Zm.56-69c-11.67,0-18.18,4.71-18.18,27.49,0,24.25,6.17,28.4,18,28.4,11.44,0,18.18-3.71,18.18-28.28C305.7,103.47,300.76,99.32,287.74,99.32Z" transform="translate(-36.87 -36.75)"/><path class="cls-1" d="M344,194.26h-8.64c-1.91,0-2.92-.56-2.92-3.37V114.36c0-2.92,1-3.93,3.59-3.93h7.18c2.69,0,3.82.56,3.93,2.47l.11,1.57c3.59-3.71,9.88-5.16,16.95-5.16,13.35,0,20.87,6.28,20.87,28.73,0,24.35-8.86,29.85-27.38,29.85-3.37,0-8.08-.56-10.21-1.57v24.57C347.46,193.47,346.33,194.26,344,194.26Zm11.89-38.6c11.56,0,14-4,14-17.74,0-11.55-1.91-15.59-10.89-15.59-3.25,0-7.4.44-10,1.9a2.28,2.28,0,0,0-1.35,1.35,6.35,6.35,0,0,0-.22,2.13v26.71A29,29,0,0,0,355.87,155.66Z" transform="translate(-36.87 -36.75)"/><path class="cls-1" d="M422,155.54a52.6,52.6,0,0,0,15.15-2,8.12,8.12,0,0,1,2.92-.56,2.19,2.19,0,0,1,2.24,1.8,34.36,34.36,0,0,1,1.57,7,2.87,2.87,0,0,1-1.9,2.92c-4.94,2.58-14.7,3.71-21.32,3.71-20.54,0-26.83-9.21-26.83-29.41,0-21.54,8.53-30,27.05-30,21.66,0,23.9,12.12,23.9,30,0,1.69-.33,3.15-1.23,3.82a4.3,4.3,0,0,1-2.69.67H409.08C409.3,153.52,413.57,155.54,422,155.54Zm8.42-23.12a9.75,9.75,0,0,0,.11-1.9c0-7-1.46-10.55-9.87-10.55s-11.11,4-11.34,12.45Z" transform="translate(-36.87 -36.75)"/><path class="cls-1" d="M468.12,167H458.8c-1.91,0-2.8-1.12-2.8-3.14V114c0-2.24,1-3.59,3.36-3.59h8.08c2.36,0,2.92.67,3.26,2.58l.22,1.68c3.59-3.59,11-5.5,18-5.5,10.66,0,14.81,2.59,16.49,7.07,1.13,2.92,1.24,6.85,1.24,11v36.59c0,1.9-.79,3.14-2.92,3.14h-9.31c-1.91,0-2.81-1.24-2.81-3.14V131a20.15,20.15,0,0,0-.56-5.5c-.79-2.36-2.92-3.26-7.41-3.26a26.46,26.46,0,0,0-9.54,1.57,4.91,4.91,0,0,0-2.35,1.57,5.48,5.48,0,0,0-.68,3.26v35.24C471,165.75,470,167,468.12,167Z" transform="translate(-36.87 -36.75)"/><path class="cls-1" d="M554.2,168.34c-22.67,0-33.55-8.53-33.55-41.53,0-33.55,14.7-40.62,34.56-40.62,22.56,0,33.55,6,33.55,40.51C588.76,159.58,577.77,168.34,554.2,168.34Zm.56-69c-11.67,0-18.18,4.71-18.18,27.49,0,24.25,6.17,28.4,18,28.4,11.44,0,18.18-3.71,18.18-28.28C572.72,103.47,567.78,99.32,554.76,99.32Z" transform="translate(-36.87 -36.75)"/><path class="cls-1" d="M617.4,168c-15.49,0-19.42-8.75-19.42-18.41,0-6.62,2-10.88,6.51-13.91,3.59-2.36,10.21-3.48,17.84-3.48a91.83,91.83,0,0,1,9.88.45v-2.58a12.72,12.72,0,0,0-.68-4.6c-.78-2-3-3.26-9.53-3.26a80.47,80.47,0,0,0-12,.9,35.57,35.57,0,0,1-4,.56,2.65,2.65,0,0,1-2.59-2.24,39.76,39.76,0,0,1-.78-7,3,3,0,0,1,2.47-3.26c6.06-1.79,13.92-2.24,19-2.24,10.77,0,16.27,1.46,19.19,4.49s3.81,7.29,3.81,14V163c0,2.92-1.23,4-3.7,4H636.7c-2.7,0-3.59-.56-3.82-2.47l-.22-2C628.62,166.43,623.23,168,617.4,168Zm7-25.59c-4.71,0-8.08.68-10,2-1.23.9-2.13,2.36-2.13,4.94,0,4.38,2,7,9.09,7,4.15,0,7.07-.79,8.87-2a3.87,3.87,0,0,0,1.57-1.68,10.16,10.16,0,0,0,.45-3.26v-6.62C630,142.52,626.71,142.41,624.35,142.41Z" transform="translate(-36.87 -36.75)"/><path class="cls-1" d="M673.85,167h-9.31c-1.8,0-2.81-.9-2.81-3.14V86.53c0-2,.67-3.26,2.81-3.26h9.53c2.14,0,2.7,1.23,2.7,3.14v42.87h4.49c2.8,0,3.93-.67,5-2.35l9.54-14.26a4.48,4.48,0,0,1,3.92-2.24h9.43c1.8,0,2.47.9,2.47,2.24a5.79,5.79,0,0,1-1.12,2.7c-7.41,11.11-11.22,15.93-13.92,19.52,2.81,4.16,6.06,9.21,16.84,26.6a7,7,0,0,1,1.57,3.37c0,1.34-1.24,2.13-2.7,2.13H702a4.43,4.43,0,0,1-3.93-2.36L685.3,144.21c-1.12-1.8-2.36-2-4.49-2h-4v21.66C676.77,166,675.65,167,673.85,167Z" transform="translate(-36.87 -36.75)"/><path class="cls-1" d="M736.26,167h-9.32c-1.79,0-2.8-.9-2.8-3.14V86.08c0-2,.67-3.15,2.92-3.15h9.42c2.13,0,2.7,1.13,2.7,3.15v77.77C739.18,166,738.05,167,736.26,167Z" transform="translate(-36.87 -36.75)"/><path class="cls-1" d="M769.81,168c-15.48,0-19.41-8.75-19.41-18.41,0-6.62,2-10.88,6.51-13.91,3.59-2.36,10.21-3.48,17.84-3.48a91.83,91.83,0,0,1,9.88.45v-2.58a12.5,12.5,0,0,0-.68-4.6c-.78-2-3-3.26-9.53-3.26a80.47,80.47,0,0,0-12,.9,35.57,35.57,0,0,1-4,.56,2.63,2.63,0,0,1-2.58-2.24,38.88,38.88,0,0,1-.79-7,3,3,0,0,1,2.47-3.26c6.06-1.79,13.91-2.24,19-2.24,10.77,0,16.27,1.46,19.19,4.49s3.81,7.29,3.81,14V163c0,2.92-1.23,4-3.7,4h-6.62c-2.7,0-3.59-.56-3.82-2.47l-.22-2C781,166.43,775.65,168,769.81,168Zm7-25.59c-4.71,0-8.08.68-10,2-1.23.9-2.13,2.36-2.13,4.94,0,4.38,2,7,9.09,7,4.16,0,7.07-.79,8.87-2a3.87,3.87,0,0,0,1.57-1.68,9.89,9.89,0,0,0,.45-3.26v-6.62C782.38,142.52,779.13,142.41,776.77,142.41Z" transform="translate(-36.87 -36.75)"/><path class="cls-1" d="M825.71,167H816.4c-1.91,0-2.81-1.12-2.81-3.14V114c0-2.24,1-3.59,3.37-3.59H825c2.36,0,2.91.67,3.25,2.58l.23,1.68c3.59-3.59,11-5.5,18-5.5,10.66,0,14.81,2.59,16.5,7.07,1.12,2.92,1.23,6.85,1.23,11v36.59c0,1.9-.78,3.14-2.92,3.14H852c-1.91,0-2.81-1.24-2.81-3.14V131a20.18,20.18,0,0,0-.55-5.5c-.79-2.36-2.92-3.26-7.41-3.26a26.41,26.41,0,0,0-9.54,1.57,4.93,4.93,0,0,0-2.36,1.57,5.58,5.58,0,0,0-.67,3.26v35.24C828.63,165.75,827.62,167,825.71,167Z" transform="translate(-36.87 -36.75)"/><path class="cls-1" d="M925,167h-6.85c-2.58,0-3.48-.34-3.7-2.36l-.22-1.68c-3.82,4-9.66,5.27-17.06,5.27-13.47,0-21.32-7.51-21.32-28.39,0-24.35,9.09-30.75,28.17-30.75,3.14,0,7.51.45,9.53,1.24v-24c0-2.58,1.24-3.37,3.48-3.37h8.64c1.8,0,2.92.57,2.92,3.37v77C928.63,166.2,927.62,167,925,167Zm-11.45-43.77c-1.91-.89-5.5-1.23-8.41-1.23-11.34,0-14.14,4-14.14,17.62,0,11.56,3,15.71,11.33,15.71,3.26,0,7-.45,9.65-2.13a3.84,3.84,0,0,0,1.24-1.46,5.07,5.07,0,0,0,.33-2.25Z" transform="translate(-36.87 -36.75)"/></svg>